<svg width="256" height="78" viewBox="0 0 256 78" fill="none" xmlns="http://www.w3.org/2000/svg">
<g clip-path="url(#clip0_44_472)">
<path fill-rule="evenodd" clip-rule="evenodd" d="M158.81 60.2806C143.989 71.2299 122.431 77.0628 103.837 77.0628C77.7878 77.0628 54.4335 67.4602 36.6482 51.486C35.3009 50.2299 36.4687 48.5245 38.1751 49.5115C57.3078 60.6397 80.9317 67.2808 105.364 67.2808C121.802 67.2808 139.946 63.8707 156.654 56.7807C159.168 55.7936 161.235 58.4859 158.809 60.2806H158.81Z" fill="#FF9900"/>
<path fill-rule="evenodd" clip-rule="evenodd" d="M165.008 53.1909C163.122 50.7679 152.432 52.0242 147.672 52.6524C146.234 52.8318 145.965 51.5755 147.312 50.678C155.846 44.6652 169.769 46.46 171.385 48.4344C173.002 50.4088 170.936 64.4078 162.941 71.0497C161.683 72.0368 160.515 71.4983 161.055 70.1522C162.852 65.6649 166.894 55.703 165.008 53.1909Z" fill="#FF9900"/>
<path fill-rule="evenodd" clip-rule="evenodd" d="M147.941 8.49973V2.66494C147.931 2.47368 147.961 2.28242 148.029 2.10358C148.098 1.92474 148.204 1.76233 148.339 1.6269C148.475 1.49147 148.637 1.38606 148.816 1.3175C148.995 1.24894 149.187 1.21878 149.378 1.22897H175.427C175.819 1.22072 176.199 1.36655 176.485 1.63509C176.77 1.90362 176.939 2.27342 176.955 2.66494V7.60086C176.955 8.40854 176.236 9.48489 174.978 11.2805L161.505 30.4857C166.535 30.3959 171.835 31.1137 176.326 33.6258C177.314 34.1642 177.583 35.0617 177.673 35.8694V42.0616C177.673 42.9591 176.775 43.9457 175.788 43.4078C167.793 39.1897 157.104 38.7411 148.301 43.4976C147.403 43.9462 146.416 43.049 146.416 42.1515V36.229C146.416 35.3315 146.416 33.717 147.404 32.2804L163.033 9.93433H149.468C149.076 9.94259 148.697 9.79696 148.411 9.52871C148.126 9.26046 147.957 8.89101 147.941 8.49973ZM52.9965 44.6649H45.0919C44.7377 44.6292 44.405 44.4781 44.1453 44.2348C43.8856 43.9915 43.7132 43.6696 43.6547 43.3188V2.75477C43.6702 2.36329 43.8388 1.99354 44.1244 1.72501C44.4099 1.45648 44.7895 1.31062 45.1816 1.3188H52.5472C52.9114 1.3243 53.2605 1.46529 53.5263 1.71421C53.7921 1.96314 53.9554 2.30212 53.9844 2.66494V7.95992H54.164C56.0497 2.8446 59.7332 0.421561 64.5837 0.421561C69.524 0.421561 72.6678 2.8446 74.8238 7.95992C76.7095 2.8446 81.1115 0.421561 85.783 0.421561C89.1065 0.421561 92.6996 1.76769 94.9452 4.90886C97.4596 8.31897 96.9214 13.2549 96.9214 17.6524V43.319C96.9059 43.7105 96.7373 44.0803 96.4517 44.3488C96.1662 44.6173 95.7866 44.7632 95.3945 44.755H87.5788C86.7704 44.6652 86.1415 44.0371 86.1415 43.319V21.7803C86.1415 20.0751 86.3211 15.7675 85.962 14.1521C85.3334 11.4599 83.6267 10.6522 81.2911 10.6522C80.2599 10.6815 79.2598 11.0115 78.4139 11.6015C77.568 12.1915 76.9133 13.0157 76.5303 13.9727C75.7219 16.0367 75.8118 19.4471 75.8118 21.7803V43.319C75.7962 43.7105 75.6276 44.0803 75.3421 44.3488C75.0565 44.6173 74.6769 44.7632 74.2849 44.755H66.3803C65.5719 44.6652 64.9431 44.0371 64.9431 43.319V21.7803C64.9431 17.293 65.6616 10.5623 60.0926 10.5623C54.4337 10.5623 54.6133 17.0238 54.6133 21.7803V43.319C54.5568 43.7029 54.3607 44.0524 54.0624 44.3008C53.764 44.5492 53.3845 44.6789 52.9965 44.6652V44.6649ZM199.41 0.421561C211.178 0.421561 217.555 10.4728 217.555 23.3061C217.555 35.6908 210.549 45.5624 199.41 45.5624C187.913 45.5624 181.625 35.5112 181.625 22.9471C181.535 10.2931 187.913 0.420469 199.41 0.420469V0.421561ZM199.41 8.76759C193.572 8.76759 193.213 16.7548 193.213 21.6908C193.213 26.6267 193.123 37.2164 199.321 37.2164C205.429 37.2164 205.788 28.6907 205.788 23.4855C205.788 20.0751 205.609 15.9472 204.62 12.7162C203.722 9.84422 201.926 8.76759 199.41 8.76759ZM232.735 44.6649H224.831C224.022 44.5751 223.394 43.947 223.394 43.2289V2.57455C223.443 2.20397 223.625 1.8637 223.905 1.61636C224.186 1.36902 224.547 1.23126 224.921 1.22842H232.286C232.62 1.24019 232.941 1.36048 233.201 1.57104C233.46 1.7816 233.644 2.07094 233.724 2.39516V8.58739H233.903C236.149 3.02318 239.203 0.420736 244.682 0.420736C248.185 0.420736 251.688 1.67677 253.934 5.17726C256 8.40799 256 13.8824 256 17.8312V43.408C255.946 43.7689 255.76 44.097 255.478 44.3289C255.196 44.5609 254.838 44.6803 254.473 44.6641H246.568C245.849 44.5742 245.22 44.0361 245.13 43.408V21.3317C245.13 16.8444 245.669 10.3824 240.19 10.3824C238.304 10.3824 236.507 11.6384 235.609 13.6131C234.531 16.1252 234.352 18.5491 234.352 21.3312V43.2297C234.302 43.6239 234.11 43.9866 233.813 44.2506C233.516 44.5146 233.133 44.6621 232.735 44.6657L232.735 44.6649ZM127.192 25.2805C127.192 28.3319 127.282 30.9343 125.755 33.7178C124.498 35.9614 122.521 37.3076 120.275 37.3076C117.221 37.3076 115.425 34.9744 115.425 31.564C115.425 24.8333 121.443 23.5767 127.192 23.5767V25.2805ZM135.186 44.5753C134.93 44.7986 134.611 44.936 134.272 44.9682C133.934 45.0004 133.594 44.9257 133.301 44.7547C130.696 42.6009 130.158 41.524 128.72 39.4597C124.408 43.8558 121.264 45.2033 115.695 45.2033C109.048 45.2033 103.838 41.0751 103.838 32.9085C103.838 26.447 107.341 22.1394 112.283 19.9853C116.595 18.1012 122.614 17.7416 127.194 17.2032V16.2161C127.194 14.3321 127.373 12.0879 126.206 10.4725C125.218 9.03655 123.421 8.40853 121.806 8.40853C118.752 8.40853 116.057 9.93406 115.428 13.1651C115.249 13.8829 114.8 14.601 114.081 14.601L106.446 13.7933C105.817 13.614 105.098 13.1653 105.278 12.178C107.074 2.8446 115.428 0.0625 122.973 0.0625C126.836 0.0625 131.866 1.04957 134.92 4.01107C138.782 7.60085 138.423 12.4483 138.423 17.6521V29.947C138.423 33.6266 139.95 35.2419 141.387 37.3059C141.926 38.0238 142.016 38.9213 141.387 39.3699C139.681 40.716 136.806 43.2289 135.189 44.5751L135.186 44.5753ZM23.4441 25.2805C23.4441 28.3319 23.534 30.9343 22.0069 33.7178C20.7497 35.9614 18.7732 37.3076 16.5276 37.3076C13.4735 37.3076 11.6771 34.9744 11.6771 31.564C11.6771 24.8333 17.6954 23.5767 23.4441 23.5767V25.2805ZM31.3487 44.5753C31.0927 44.7986 30.773 44.936 30.4347 44.9682C30.0964 45.0004 29.7565 44.9257 29.4629 44.7547C26.8581 42.6009 26.32 41.524 24.8819 39.4597C20.5704 43.8558 17.4264 45.2033 11.8575 45.2033C5.21036 45.2033 0.000518799 41.0751 0.000518799 32.9085C0.000518799 26.447 3.50363 22.1394 8.44537 19.9853C12.7569 18.1012 18.776 17.7416 23.3561 17.2032V16.2161C23.3561 14.3321 23.5357 12.0879 22.3682 10.4725C21.3802 9.03655 19.5836 8.40853 17.9681 8.40853C14.914 8.40853 12.2193 9.93406 11.5905 13.1651C11.4109 13.8829 10.9619 14.601 10.2431 14.601L2.60804 13.7933C1.97946 13.614 1.26069 13.1653 1.44024 12.178C3.23662 2.8446 11.5905 0.0625 19.1356 0.0625C22.9981 0.0625 28.0281 1.04957 31.0822 4.01107C34.9447 7.60085 34.5853 12.4483 34.5853 17.6521V29.947C34.5853 33.6266 36.1122 35.2419 37.5495 37.3059C38.0884 38.0238 38.1781 38.9213 37.5495 39.3699C35.8428 40.716 32.9685 43.2289 31.3517 44.5751L31.3487 44.5753Z" fill="black"/>
</g>
<defs>
<clipPath id="clip0_44_472">
<rect width="256" height="77" fill="white" transform="translate(0 0.0625)"/>
</clipPath>
</defs>
</svg>
