<svg width="45" height="45" viewBox="0 0 45 45" fill="none" xmlns="http://www.w3.org/2000/svg">
<path d="M26.7937 32.4187L24.3749 34.8562V24.375C24.3749 23.8777 24.1774 23.4008 23.8258 23.0492C23.4741 22.6975 22.9972 22.5 22.4999 22.5C22.0027 22.5 21.5258 22.6975 21.1741 23.0492C20.8225 23.4008 20.6249 23.8777 20.6249 24.375V34.8562L18.2062 32.4187C18.0314 32.2439 17.8238 32.1052 17.5954 32.0106C17.367 31.916 17.1222 31.8673 16.8749 31.8673C16.6277 31.8673 16.3829 31.916 16.1545 32.0106C15.9261 32.1052 15.7185 32.2439 15.5437 32.4187C15.3689 32.5936 15.2302 32.8011 15.1356 33.0295C15.041 33.2579 14.9923 33.5028 14.9923 33.75C14.9923 33.9972 15.041 34.242 15.1356 34.4705C15.2302 34.6989 15.3689 34.9064 15.5437 35.0812L21.1687 40.7062C21.347 40.8769 21.5573 41.0107 21.7874 41.1C22.0119 41.1992 22.2546 41.2504 22.4999 41.2504C22.7453 41.2504 22.988 41.1992 23.2124 41.1C23.4426 41.0107 23.6529 40.8769 23.8312 40.7062L29.4562 35.0812C29.8093 34.7282 30.0076 34.2493 30.0076 33.75C30.0076 33.2507 29.8093 32.7718 29.4562 32.4187C29.1031 32.0657 28.6243 31.8673 28.1249 31.8673C27.6256 31.8673 27.1468 32.0657 26.7937 32.4187ZM34.5374 11.6625C33.3918 9.02999 31.4146 6.84575 28.9088 5.44447C26.4031 4.04319 23.5069 3.50217 20.6643 3.90432C17.8216 4.30646 15.1892 5.62959 13.1704 7.67094C11.1517 9.71229 9.85793 12.3593 9.48745 15.2062C7.69979 15.6343 6.13161 16.704 5.0807 18.2122C4.0298 19.7204 3.56935 21.562 3.78682 23.3873C4.00428 25.2126 4.8845 26.8944 6.26032 28.1135C7.63615 29.3325 9.41175 30.0039 11.2499 30C11.7472 30 12.2241 29.8024 12.5758 29.4508C12.9274 29.0992 13.1249 28.6223 13.1249 28.125C13.1249 27.6277 12.9274 27.1508 12.5758 26.7992C12.2241 26.4475 11.7472 26.25 11.2499 26.25C10.2554 26.25 9.30156 25.8549 8.5983 25.1516C7.89503 24.4484 7.49995 23.4945 7.49995 22.5C7.49995 21.5054 7.89503 20.5516 8.5983 19.8483C9.30156 19.1451 10.2554 18.75 11.2499 18.75C11.7472 18.75 12.2241 18.5524 12.5758 18.2008C12.9274 17.8492 13.1249 17.3723 13.1249 16.875C13.1297 14.6574 13.9205 12.5133 15.3567 10.8236C16.7929 9.13389 18.7816 8.00802 20.9695 7.646C23.1573 7.28398 25.4027 7.70925 27.3066 8.84625C29.2106 9.98326 30.6498 11.7584 31.3687 13.8562C31.4759 14.1784 31.6685 14.4655 31.9261 14.6867C32.1837 14.908 32.4965 15.0551 32.8312 15.1125C34.0801 15.3485 35.2122 16.0005 36.0431 16.9622C36.874 17.924 37.3548 19.1388 37.4069 20.4087C37.4591 21.6786 37.0797 22.9287 36.3305 23.9554C35.5813 24.9821 34.5065 25.7248 33.2812 26.0625C33.0424 26.124 32.818 26.232 32.6209 26.3803C32.4238 26.5286 32.2578 26.7142 32.1324 26.9266C32.0071 27.1391 31.9248 27.3741 31.8903 27.6183C31.8557 27.8625 31.8696 28.1111 31.9312 28.35C31.9928 28.5888 32.1007 28.8132 32.249 29.0103C32.3973 29.2074 32.5829 29.3734 32.7954 29.4987C33.0078 29.6241 33.2428 29.7064 33.487 29.7409C33.7312 29.7755 33.9799 29.7615 34.2187 29.7C36.1919 29.1786 37.9411 28.0275 39.2006 26.4215C40.4601 24.8155 41.1611 22.8424 41.1971 20.8017C41.2332 18.7611 40.6023 16.7644 39.4004 15.115C38.1984 13.4655 36.491 12.2533 34.5374 11.6625Z" fill="#323232"/>
</svg>
