<svg width="194" height="53" viewBox="0 0 194 53" fill="none" xmlns="http://www.w3.org/2000/svg">
<path d="M0 20C0 8.95431 8.95431 0 20 0H174C185.046 0 194 8.95431 194 20V53H0V20Z" fill="#FFBC00"/>
<path d="M62.8916 28.0283H58.8955L58.874 25.9443H62.3008C62.888 25.9443 63.3786 25.862 63.7725 25.6973C64.1663 25.5326 64.4635 25.2926 64.6641 24.9775C64.8717 24.6624 64.9756 24.2793 64.9756 23.8281C64.9756 23.3268 64.8789 22.9186 64.6855 22.6035C64.4993 22.2884 64.2057 22.0592 63.8047 21.916C63.4036 21.7656 62.8952 21.6904 62.2793 21.6904H59.8516V35H56.8975V19.3594H62.2793C63.1673 19.3594 63.9587 19.4453 64.6533 19.6172C65.3551 19.7819 65.9495 20.0397 66.4365 20.3906C66.9235 20.7415 67.2923 21.182 67.543 21.7119C67.8008 22.2419 67.9297 22.8721 67.9297 23.6025C67.9297 24.2471 67.7793 24.8415 67.4785 25.3857C67.1849 25.9229 66.7301 26.3597 66.1143 26.6963C65.5055 27.0329 64.7321 27.2262 63.7939 27.2764L62.8916 28.0283ZM62.7627 35H58.0254L59.2607 32.6797H62.7627C63.3499 32.6797 63.8333 32.583 64.2129 32.3896C64.5996 32.1963 64.8861 31.9313 65.0723 31.5947C65.2656 31.251 65.3623 30.8571 65.3623 30.4131C65.3623 29.9261 65.2764 29.5036 65.1045 29.1455C64.9398 28.7874 64.6748 28.5117 64.3096 28.3184C63.9515 28.125 63.4788 28.0283 62.8916 28.0283H59.8193L59.8408 25.9443H63.751L64.4277 26.75C65.3301 26.7572 66.0641 26.9362 66.6299 27.2871C67.2028 27.638 67.6253 28.0892 67.8975 28.6406C68.1696 29.1921 68.3057 29.7865 68.3057 30.4238C68.3057 31.4264 68.0872 32.2679 67.6504 32.9482C67.2207 33.6286 66.5905 34.1406 65.7598 34.4844C64.9362 34.8281 63.9372 35 62.7627 35ZM73.4834 25.751V35H70.6475V23.377H73.333L73.4834 25.751ZM77.0176 23.3018L76.9746 25.9443C76.8171 25.9157 76.638 25.8942 76.4375 25.8799C76.2441 25.8656 76.0615 25.8584 75.8896 25.8584C75.4528 25.8584 75.0697 25.9193 74.7402 26.041C74.4108 26.1556 74.1351 26.3239 73.9131 26.5459C73.6982 26.7679 73.5335 27.04 73.4189 27.3623C73.3044 27.6774 73.2399 28.0355 73.2256 28.4365L72.6133 28.3613C72.6133 27.6237 72.6885 26.9398 72.8389 26.3096C72.9893 25.6794 73.2077 25.1279 73.4941 24.6553C73.7806 24.1826 74.1387 23.8174 74.5684 23.5596C75.0052 23.2946 75.5065 23.1621 76.0723 23.1621C76.2298 23.1621 76.3981 23.1764 76.5771 23.2051C76.7633 23.2266 76.9102 23.2588 77.0176 23.3018ZM77.7695 29.3066V29.0811C77.7695 28.2288 77.8913 27.4447 78.1348 26.7285C78.3783 26.0052 78.7327 25.3786 79.1982 24.8486C79.6637 24.3187 80.2331 23.9069 80.9062 23.6133C81.5794 23.3125 82.3457 23.1621 83.2051 23.1621C84.0788 23.1621 84.8522 23.3125 85.5254 23.6133C86.2057 23.9069 86.7786 24.3187 87.2441 24.8486C87.7096 25.3786 88.0641 26.0052 88.3076 26.7285C88.5511 27.4447 88.6729 28.2288 88.6729 29.0811V29.3066C88.6729 30.1517 88.5511 30.9359 88.3076 31.6592C88.0641 32.3753 87.7096 33.002 87.2441 33.5391C86.7786 34.069 86.2093 34.4808 85.5361 34.7744C84.863 35.068 84.0931 35.2148 83.2266 35.2148C82.3672 35.2148 81.5973 35.068 80.917 34.7744C80.2367 34.4808 79.6637 34.069 79.1982 33.5391C78.7327 33.002 78.3783 32.3753 78.1348 31.6592C77.8913 30.9359 77.7695 30.1517 77.7695 29.3066ZM80.6055 29.0811V29.3066C80.6055 29.8151 80.6556 30.2913 80.7559 30.7354C80.8561 31.1794 81.0101 31.5697 81.2178 31.9062C81.4255 32.2428 81.694 32.5078 82.0234 32.7012C82.36 32.8874 82.7611 32.9805 83.2266 32.9805C83.6849 32.9805 84.0788 32.8874 84.4082 32.7012C84.7376 32.5078 85.0062 32.2428 85.2139 31.9062C85.4287 31.5697 85.5863 31.1794 85.6865 30.7354C85.7868 30.2913 85.8369 29.8151 85.8369 29.3066V29.0811C85.8369 28.5798 85.7868 28.1107 85.6865 27.6738C85.5863 27.2298 85.4287 26.8395 85.2139 26.5029C85.0062 26.1592 84.734 25.8906 84.3975 25.6973C84.068 25.4967 83.6706 25.3965 83.2051 25.3965C82.7467 25.3965 82.3529 25.4967 82.0234 25.6973C81.694 25.8906 81.4255 26.1592 81.2178 26.5029C81.0101 26.8395 80.8561 27.2298 80.7559 27.6738C80.6556 28.1107 80.6055 28.5798 80.6055 29.0811ZM97.6533 32.2393V23.377H100.511V35H97.8252L97.6533 32.2393ZM98.0186 29.833L98.8994 29.8115C98.8994 30.5921 98.8135 31.3118 98.6416 31.9707C98.4697 32.6296 98.2012 33.2025 97.8359 33.6895C97.4779 34.1693 97.0231 34.5452 96.4717 34.8174C95.9202 35.0824 95.2686 35.2148 94.5166 35.2148C93.9437 35.2148 93.4209 35.1361 92.9482 34.9785C92.4756 34.8138 92.0674 34.5596 91.7236 34.2158C91.387 33.8649 91.1257 33.4173 90.9395 32.873C90.7533 32.3216 90.6602 31.6592 90.6602 30.8857V23.377H93.4961V30.9072C93.4961 31.2939 93.5391 31.6162 93.625 31.874C93.7181 32.1318 93.8434 32.3431 94.001 32.5078C94.1657 32.6654 94.3555 32.7799 94.5703 32.8516C94.7923 32.916 95.0286 32.9482 95.2793 32.9482C95.9668 32.9482 96.5075 32.8122 96.9014 32.54C97.3024 32.2607 97.5889 31.8883 97.7607 31.4229C97.9326 30.9502 98.0186 30.4202 98.0186 29.833ZM107.794 32.9805C108.195 32.9805 108.553 32.9017 108.868 32.7441C109.183 32.5866 109.434 32.3646 109.62 32.0781C109.813 31.7917 109.917 31.4587 109.932 31.0791H112.606C112.592 31.8669 112.37 32.5723 111.94 33.1953C111.511 33.8184 110.938 34.3125 110.222 34.6777C109.513 35.0358 108.718 35.2148 107.837 35.2148C106.942 35.2148 106.161 35.0645 105.495 34.7637C104.829 34.4629 104.274 34.0439 103.83 33.5068C103.393 32.9697 103.064 32.3467 102.842 31.6377C102.627 30.9287 102.52 30.1696 102.52 29.3604V29.0166C102.52 28.2074 102.627 27.4482 102.842 26.7393C103.064 26.0303 103.393 25.4072 103.83 24.8701C104.274 24.333 104.829 23.9141 105.495 23.6133C106.161 23.3125 106.938 23.1621 107.826 23.1621C108.764 23.1621 109.588 23.3447 110.297 23.71C111.013 24.0752 111.572 24.5908 111.973 25.2568C112.381 25.9229 112.592 26.707 112.606 27.6094H109.932C109.917 27.194 109.824 26.8216 109.652 26.4922C109.48 26.1628 109.237 25.8978 108.922 25.6973C108.607 25.4967 108.224 25.3965 107.772 25.3965C107.293 25.3965 106.892 25.4967 106.569 25.6973C106.254 25.8978 106.007 26.1735 105.828 26.5244C105.656 26.8682 105.535 27.2549 105.463 27.6846C105.398 28.1071 105.366 28.5511 105.366 29.0166V29.3604C105.366 29.833 105.398 30.2842 105.463 30.7139C105.535 31.1436 105.656 31.5303 105.828 31.874C106.007 32.2106 106.254 32.4792 106.569 32.6797C106.892 32.8802 107.3 32.9805 107.794 32.9805ZM117.279 18.5V35H114.433V18.5H117.279ZM116.828 28.7695H115.99C115.99 27.9603 116.098 27.2155 116.312 26.5352C116.527 25.8548 116.832 25.264 117.226 24.7627C117.619 24.2542 118.089 23.8604 118.633 23.5811C119.184 23.3018 119.793 23.1621 120.459 23.1621C121.032 23.1621 121.551 23.2445 122.017 23.4092C122.489 23.5667 122.894 23.821 123.23 24.1719C123.567 24.5228 123.825 24.9811 124.004 25.5469C124.19 26.1055 124.283 26.7858 124.283 27.5879V35H121.426V27.5664C121.426 27.0293 121.347 26.6068 121.189 26.2988C121.032 25.9837 120.806 25.7581 120.513 25.6221C120.226 25.486 119.872 25.418 119.449 25.418C118.991 25.418 118.597 25.5075 118.268 25.6865C117.938 25.8584 117.666 26.0983 117.451 26.4062C117.243 26.7142 117.086 27.0687 116.979 27.4697C116.878 27.8708 116.828 28.304 116.828 28.7695ZM132.007 35.2148C131.126 35.2148 130.335 35.0716 129.633 34.7852C128.931 34.4987 128.333 34.1012 127.839 33.5928C127.352 33.0771 126.976 32.4792 126.711 31.7988C126.453 31.1113 126.324 30.3737 126.324 29.5859V29.1562C126.324 28.2611 126.453 27.4482 126.711 26.7178C126.969 25.9801 127.334 25.3464 127.807 24.8164C128.279 24.2865 128.845 23.8783 129.504 23.5918C130.163 23.3053 130.89 23.1621 131.685 23.1621C132.508 23.1621 133.235 23.3018 133.865 23.5811C134.495 23.8532 135.022 24.2399 135.444 24.7412C135.867 25.2425 136.186 25.8441 136.4 26.5459C136.615 27.2406 136.723 28.0104 136.723 28.8555V30.0479H127.613V28.0928H133.93V27.8779C133.915 27.4268 133.829 27.015 133.672 26.6426C133.514 26.263 133.271 25.9622 132.941 25.7402C132.612 25.5111 132.186 25.3965 131.663 25.3965C131.241 25.3965 130.872 25.4896 130.557 25.6758C130.249 25.8548 129.991 26.1126 129.783 26.4492C129.583 26.7786 129.432 27.1725 129.332 27.6309C129.232 28.0892 129.182 28.5977 129.182 29.1562V29.5859C129.182 30.0729 129.246 30.5241 129.375 30.9395C129.511 31.3548 129.708 31.7165 129.966 32.0244C130.231 32.3252 130.546 32.5615 130.911 32.7334C131.284 32.8981 131.706 32.9805 132.179 32.9805C132.773 32.9805 133.31 32.8659 133.79 32.6367C134.277 32.4004 134.7 32.0531 135.058 31.5947L136.486 33.0771C136.243 33.4352 135.913 33.779 135.498 34.1084C135.09 34.4378 134.596 34.7064 134.016 34.9141C133.436 35.1146 132.766 35.2148 132.007 35.2148ZM141.46 25.751V35H138.624V23.377H141.31L141.46 25.751ZM144.994 23.3018L144.951 25.9443C144.794 25.9157 144.615 25.8942 144.414 25.8799C144.221 25.8656 144.038 25.8584 143.866 25.8584C143.429 25.8584 143.046 25.9193 142.717 26.041C142.387 26.1556 142.112 26.3239 141.89 26.5459C141.675 26.7679 141.51 27.04 141.396 27.3623C141.281 27.6774 141.216 28.0355 141.202 28.4365L140.59 28.3613C140.59 27.6237 140.665 26.9398 140.815 26.3096C140.966 25.6794 141.184 25.1279 141.471 24.6553C141.757 24.1826 142.115 23.8174 142.545 23.5596C142.982 23.2946 143.483 23.1621 144.049 23.1621C144.206 23.1621 144.375 23.1764 144.554 23.2051C144.74 23.2266 144.887 23.2588 144.994 23.3018ZM152.943 31.8203C152.943 31.5768 152.879 31.3584 152.75 31.165C152.621 30.9717 152.378 30.7962 152.02 30.6387C151.669 30.474 151.153 30.32 150.473 30.1768C149.871 30.0479 149.316 29.8867 148.808 29.6934C148.299 29.5 147.862 29.2673 147.497 28.9951C147.132 28.7158 146.845 28.39 146.638 28.0176C146.437 27.638 146.337 27.2012 146.337 26.707C146.337 26.2272 146.441 25.776 146.648 25.3535C146.856 24.9238 147.157 24.5479 147.551 24.2256C147.945 23.8962 148.424 23.6383 148.99 23.4521C149.556 23.2588 150.193 23.1621 150.902 23.1621C151.891 23.1621 152.739 23.3232 153.448 23.6455C154.164 23.9678 154.712 24.4118 155.092 24.9775C155.471 25.5361 155.661 26.1663 155.661 26.8682H152.825C152.825 26.5602 152.754 26.2809 152.61 26.0303C152.474 25.7796 152.263 25.5791 151.977 25.4287C151.69 25.2712 151.328 25.1924 150.892 25.1924C150.498 25.1924 150.165 25.2568 149.893 25.3857C149.628 25.5146 149.427 25.6829 149.291 25.8906C149.155 26.0983 149.087 26.3275 149.087 26.5781C149.087 26.7643 149.123 26.9326 149.194 27.083C149.273 27.2262 149.398 27.3587 149.57 27.4805C149.742 27.6022 149.975 27.7132 150.269 27.8135C150.569 27.9137 150.938 28.0104 151.375 28.1035C152.242 28.2754 152.997 28.5046 153.642 28.791C154.293 29.0703 154.802 29.4427 155.167 29.9082C155.532 30.3737 155.715 30.9681 155.715 31.6914C155.715 32.207 155.604 32.6797 155.382 33.1094C155.16 33.5319 154.838 33.9007 154.415 34.2158C153.993 34.5309 153.488 34.778 152.9 34.957C152.313 35.1289 151.651 35.2148 150.913 35.2148C149.846 35.2148 148.944 35.0251 148.206 34.6455C147.468 34.2588 146.91 33.7718 146.53 33.1846C146.151 32.5902 145.961 31.9743 145.961 31.3369H148.679C148.7 31.7881 148.822 32.1497 149.044 32.4219C149.266 32.694 149.545 32.891 149.882 33.0127C150.226 33.1273 150.587 33.1846 150.967 33.1846C151.396 33.1846 151.758 33.1273 152.052 33.0127C152.345 32.891 152.567 32.7298 152.718 32.5293C152.868 32.3216 152.943 32.0853 152.943 31.8203Z" fill="white"/>
<path d="M37.7071 16.2929C37.3166 15.9024 36.6834 15.9024 36.2929 16.2929L29.9289 22.6569C29.5384 23.0474 29.5384 23.6805 29.9289 24.0711C30.3195 24.4616 30.9526 24.4616 31.3431 24.0711L37 18.4142L42.6569 24.0711C43.0474 24.4616 43.6805 24.4616 44.0711 24.0711C44.4616 23.6805 44.4616 23.0474 44.0711 22.6569L37.7071 16.2929ZM38 37L38 17H36L36 37H38Z" fill="white"/>
</svg>
