<svg width="194" height="53" viewBox="0 0 194 53" fill="none" xmlns="http://www.w3.org/2000/svg">
<path d="M0 20C0 8.95431 8.95431 0 20 0H174C185.046 0 194 8.95431 194 20V53H0V20Z" fill="#FFBC00"/>
<path d="M66.7998 19.3594H69.3564L73.6318 31.1328L77.8965 19.3594H80.4639L74.6523 35H72.6006L66.7998 19.3594ZM65.5107 19.3594H68.0137L68.4648 30.1768V35H65.5107V19.3594ZM79.2393 19.3594H81.7529V35H78.7988V30.1768L79.2393 19.3594ZM87.5537 23.377V35H84.707V23.377H87.5537ZM84.5137 20.3369C84.5137 19.9144 84.6569 19.5635 84.9434 19.2842C85.237 19.0049 85.6309 18.8652 86.125 18.8652C86.6191 18.8652 87.0094 19.0049 87.2959 19.2842C87.5895 19.5635 87.7363 19.9144 87.7363 20.3369C87.7363 20.7523 87.5895 21.0996 87.2959 21.3789C87.0094 21.6582 86.6191 21.7979 86.125 21.7979C85.6309 21.7979 85.237 21.6582 84.9434 21.3789C84.6569 21.0996 84.5137 20.7523 84.5137 20.3369ZM93.043 25.8584V35H90.207V23.377H92.8711L93.043 25.8584ZM92.5918 28.7695H91.7539C91.7611 27.9245 91.8757 27.1582 92.0977 26.4707C92.3197 25.7832 92.6312 25.1924 93.0322 24.6982C93.4404 24.2041 93.9238 23.8245 94.4824 23.5596C95.041 23.2946 95.6641 23.1621 96.3516 23.1621C96.9102 23.1621 97.415 23.2409 97.8662 23.3984C98.3174 23.556 98.7041 23.8066 99.0264 24.1504C99.3558 24.4941 99.6064 24.9453 99.7783 25.5039C99.9574 26.0553 100.047 26.7357 100.047 27.5449V35H97.1895V27.5234C97.1895 26.9935 97.1107 26.5745 96.9531 26.2666C96.8027 25.9587 96.5807 25.7402 96.2871 25.6113C96.0007 25.4824 95.6462 25.418 95.2236 25.418C94.7868 25.418 94.4036 25.5075 94.0742 25.6865C93.752 25.8584 93.4798 26.0983 93.2578 26.4062C93.043 26.7142 92.8783 27.0687 92.7637 27.4697C92.6491 27.8708 92.5918 28.304 92.5918 28.7695ZM105.558 23.377V35H102.711V23.377H105.558ZM102.518 20.3369C102.518 19.9144 102.661 19.5635 102.947 19.2842C103.241 19.0049 103.635 18.8652 104.129 18.8652C104.623 18.8652 105.013 19.0049 105.3 19.2842C105.593 19.5635 105.74 19.9144 105.74 20.3369C105.74 20.7523 105.593 21.0996 105.3 21.3789C105.013 21.6582 104.623 21.7979 104.129 21.7979C103.635 21.7979 103.241 21.6582 102.947 21.3789C102.661 21.0996 102.518 20.7523 102.518 20.3369ZM111.09 25.7617V35H108.254V23.377H110.929L111.09 25.7617ZM110.671 28.7695H109.801C109.801 27.9603 109.897 27.2155 110.091 26.5352C110.291 25.8548 110.585 25.264 110.972 24.7627C111.358 24.2542 111.835 23.8604 112.4 23.5811C112.973 23.3018 113.636 23.1621 114.388 23.1621C114.91 23.1621 115.39 23.2409 115.827 23.3984C116.264 23.5488 116.64 23.7887 116.955 24.1182C117.277 24.4404 117.524 24.863 117.696 25.3857C117.868 25.9014 117.954 26.5208 117.954 27.2441V35H115.118V27.5342C115.118 26.9899 115.039 26.5638 114.882 26.2559C114.731 25.9479 114.513 25.7331 114.227 25.6113C113.94 25.4824 113.596 25.418 113.195 25.418C112.751 25.418 112.368 25.5075 112.046 25.6865C111.731 25.8584 111.469 26.0983 111.262 26.4062C111.061 26.7142 110.911 27.0687 110.811 27.4697C110.717 27.8708 110.671 28.304 110.671 28.7695ZM117.739 28.2432L116.568 28.458C116.576 27.7275 116.676 27.0436 116.869 26.4062C117.062 25.7617 117.345 25.1995 117.718 24.7197C118.097 24.2327 118.566 23.8532 119.125 23.5811C119.691 23.3018 120.342 23.1621 121.08 23.1621C121.653 23.1621 122.169 23.2445 122.627 23.4092C123.092 23.5667 123.49 23.821 123.819 24.1719C124.149 24.5156 124.399 24.9632 124.571 25.5146C124.75 26.0661 124.84 26.7393 124.84 27.5342V35H121.982V27.5234C121.982 26.9577 121.904 26.5244 121.746 26.2236C121.596 25.9229 121.377 25.7152 121.091 25.6006C120.804 25.4788 120.468 25.418 120.081 25.418C119.687 25.418 119.343 25.4932 119.05 25.6436C118.763 25.7868 118.52 25.9873 118.319 26.2451C118.126 26.5029 117.979 26.8037 117.879 27.1475C117.786 27.484 117.739 27.8493 117.739 28.2432ZM130.394 23.377V35H127.547V23.377H130.394ZM127.354 20.3369C127.354 19.9144 127.497 19.5635 127.783 19.2842C128.077 19.0049 128.471 18.8652 128.965 18.8652C129.459 18.8652 129.849 19.0049 130.136 19.2842C130.429 19.5635 130.576 19.9144 130.576 20.3369C130.576 20.7523 130.429 21.0996 130.136 21.3789C129.849 21.6582 129.459 21.7979 128.965 21.7979C128.471 21.7979 128.077 21.6582 127.783 21.3789C127.497 21.0996 127.354 20.7523 127.354 20.3369ZM139.492 31.8203C139.492 31.5768 139.428 31.3584 139.299 31.165C139.17 30.9717 138.926 30.7962 138.568 30.6387C138.217 30.474 137.702 30.32 137.021 30.1768C136.42 30.0479 135.865 29.8867 135.356 29.6934C134.848 29.5 134.411 29.2673 134.046 28.9951C133.681 28.7158 133.394 28.39 133.187 28.0176C132.986 27.638 132.886 27.2012 132.886 26.707C132.886 26.2272 132.99 25.776 133.197 25.3535C133.405 24.9238 133.706 24.5479 134.1 24.2256C134.493 23.8962 134.973 23.6383 135.539 23.4521C136.105 23.2588 136.742 23.1621 137.451 23.1621C138.439 23.1621 139.288 23.3232 139.997 23.6455C140.713 23.9678 141.261 24.4118 141.641 24.9775C142.02 25.5361 142.21 26.1663 142.21 26.8682H139.374C139.374 26.5602 139.302 26.2809 139.159 26.0303C139.023 25.7796 138.812 25.5791 138.525 25.4287C138.239 25.2712 137.877 25.1924 137.44 25.1924C137.047 25.1924 136.714 25.2568 136.441 25.3857C136.176 25.5146 135.976 25.6829 135.84 25.8906C135.704 26.0983 135.636 26.3275 135.636 26.5781C135.636 26.7643 135.672 26.9326 135.743 27.083C135.822 27.2262 135.947 27.3587 136.119 27.4805C136.291 27.6022 136.524 27.7132 136.817 27.8135C137.118 27.9137 137.487 28.0104 137.924 28.1035C138.79 28.2754 139.546 28.5046 140.19 28.791C140.842 29.0703 141.351 29.4427 141.716 29.9082C142.081 30.3737 142.264 30.9681 142.264 31.6914C142.264 32.207 142.153 32.6797 141.931 33.1094C141.709 33.5319 141.386 33.9007 140.964 34.2158C140.541 34.5309 140.036 34.778 139.449 34.957C138.862 35.1289 138.2 35.2148 137.462 35.2148C136.395 35.2148 135.493 35.0251 134.755 34.6455C134.017 34.2588 133.459 33.7718 133.079 33.1846C132.7 32.5902 132.51 31.9743 132.51 31.3369H135.228C135.249 31.7881 135.371 32.1497 135.593 32.4219C135.815 32.694 136.094 32.891 136.431 33.0127C136.774 33.1273 137.136 33.1846 137.516 33.1846C137.945 33.1846 138.307 33.1273 138.601 33.0127C138.894 32.891 139.116 32.7298 139.267 32.5293C139.417 32.3216 139.492 32.0853 139.492 31.8203ZM149.644 35.2148C148.763 35.2148 147.971 35.0716 147.27 34.7852C146.568 34.4987 145.97 34.1012 145.476 33.5928C144.989 33.0771 144.613 32.4792 144.348 31.7988C144.09 31.1113 143.961 30.3737 143.961 29.5859V29.1562C143.961 28.2611 144.09 27.4482 144.348 26.7178C144.605 25.9801 144.971 25.3464 145.443 24.8164C145.916 24.2865 146.482 23.8783 147.141 23.5918C147.799 23.3053 148.526 23.1621 149.321 23.1621C150.145 23.1621 150.872 23.3018 151.502 23.5811C152.132 23.8532 152.659 24.2399 153.081 24.7412C153.504 25.2425 153.822 25.8441 154.037 26.5459C154.252 27.2406 154.359 28.0104 154.359 28.8555V30.0479H145.25V28.0928H151.566V27.8779C151.552 27.4268 151.466 27.015 151.309 26.6426C151.151 26.263 150.908 25.9622 150.578 25.7402C150.249 25.5111 149.823 25.3965 149.3 25.3965C148.877 25.3965 148.508 25.4896 148.193 25.6758C147.885 25.8548 147.628 26.1126 147.42 26.4492C147.219 26.7786 147.069 27.1725 146.969 27.6309C146.868 28.0892 146.818 28.5977 146.818 29.1562V29.5859C146.818 30.0729 146.883 30.5241 147.012 30.9395C147.148 31.3548 147.345 31.7165 147.603 32.0244C147.868 32.3252 148.183 32.5615 148.548 32.7334C148.92 32.8981 149.343 32.9805 149.815 32.9805C150.41 32.9805 150.947 32.8659 151.427 32.6367C151.914 32.4004 152.336 32.0531 152.694 31.5947L154.123 33.0771C153.88 33.4352 153.55 33.779 153.135 34.1084C152.727 34.4378 152.232 34.7064 151.652 34.9141C151.072 35.1146 150.403 35.2148 149.644 35.2148Z" fill="white"/>
<path d="M39.2929 37.7071C39.6834 38.0976 40.3166 38.0976 40.7071 37.7071L47.0711 31.3431C47.4616 30.9526 47.4616 30.3195 47.0711 29.9289C46.6805 29.5384 46.0474 29.5384 45.6569 29.9289L40 35.5858L34.3431 29.9289C33.9526 29.5384 33.3195 29.5384 32.9289 29.9289C32.5384 30.3195 32.5384 30.9526 32.9289 31.3431L39.2929 37.7071ZM39 17V37H41V17H39Z" fill="white"/>
</svg>
