<svg width="261" height="57" viewBox="0 0 261 57" fill="none" xmlns="http://www.w3.org/2000/svg">
<path d="M261 25.3725V20.8342H255.287V13.7788L255.095 13.8372L249.729 15.4568L249.624 15.4885V20.8344H241.155V17.8563C241.155 16.4696 241.469 15.4084 242.089 14.7007C242.704 14.0015 243.583 13.646 244.706 13.646C245.512 13.646 246.348 13.8335 247.188 14.2032L247.399 14.296V9.51658L247.3 9.48063C246.516 9.20254 245.449 9.0625 244.127 9.0625C242.461 9.0625 240.947 9.42022 239.627 10.1292C238.305 10.8391 237.266 11.8526 236.538 13.1412C235.813 14.4284 235.445 15.9149 235.445 17.56V20.8342H231.467V25.3725H235.445V44.4916H241.155V25.3725H249.624V37.5224C249.624 42.5262 252.016 45.062 256.734 45.062C257.51 45.062 258.326 44.9724 259.159 44.7969C260.007 44.6167 260.585 44.4367 260.925 44.2445L261 44.2005V39.6203L260.768 39.7718C260.458 39.9755 260.072 40.142 259.619 40.2658C259.165 40.3919 258.785 40.455 258.491 40.455C257.386 40.455 256.568 40.1612 256.061 39.5813C255.548 38.9962 255.288 37.9729 255.288 36.5415V25.3725H261ZM218.715 40.4558C216.643 40.4558 215.008 39.7778 213.857 38.4422C212.698 37.1 212.111 35.1863 212.111 32.7549C212.111 30.2463 212.698 28.283 213.857 26.917C215.01 25.56 216.628 24.8712 218.669 24.8712C220.649 24.8712 222.225 25.529 223.354 26.8273C224.488 28.1324 225.064 30.0801 225.064 32.6178C225.064 35.1868 224.523 37.1601 223.455 38.4802C222.394 39.7903 220.8 40.4558 218.715 40.4558ZM218.969 20.2643C215.015 20.2643 211.874 21.4073 209.635 23.6618C207.397 25.9164 206.262 29.0366 206.262 32.9364C206.262 36.6404 207.37 39.6198 209.555 41.7903C211.739 43.9616 214.712 45.0615 218.391 45.0615C222.224 45.0615 225.302 43.9025 227.54 41.6168C229.778 39.3337 230.912 36.243 230.912 32.4343C230.912 28.6724 229.848 25.6708 227.749 23.5147C225.648 21.3577 222.694 20.2643 218.969 20.2643ZM197.056 20.2643C194.366 20.2643 192.141 20.943 190.441 22.2813C188.731 23.6276 187.864 25.3932 187.864 27.5298C187.864 28.6404 188.051 29.627 188.42 30.4637C188.79 31.3033 189.364 32.0424 190.126 32.6628C190.882 33.2781 192.05 33.9227 193.597 34.5784C194.898 35.1064 195.867 35.553 196.484 35.905C197.086 36.25 197.513 36.5967 197.755 36.9345C197.989 37.265 198.108 37.7173 198.108 38.2755C198.108 39.8649 196.902 40.6383 194.419 40.6383C193.498 40.6383 192.448 40.4485 191.297 40.0746C190.155 39.7063 189.077 39.167 188.101 38.4754L187.863 38.3077V43.7315L187.951 43.7714C188.758 44.1394 189.777 44.4497 190.978 44.6938C192.176 44.9382 193.265 45.0625 194.211 45.0625C197.13 45.0625 199.48 44.3805 201.195 43.0342C202.921 41.6787 203.796 39.8714 203.796 37.6609C203.796 36.0662 203.325 34.6988 202.397 33.5959C201.475 32.502 199.875 31.4977 197.643 30.61C195.866 29.9061 194.727 29.3217 194.257 28.8731C193.804 28.4397 193.574 27.8269 193.574 27.0508C193.574 26.3628 193.858 25.8116 194.441 25.3652C195.028 24.9167 195.845 24.6885 196.871 24.6885C197.822 24.6885 198.796 24.8368 199.764 25.1273C200.731 25.4179 201.581 25.8071 202.29 26.2831L202.523 26.4404V21.2955L202.434 21.2575C201.779 20.9807 200.916 20.7438 199.868 20.5516C198.825 20.3606 197.879 20.2643 197.056 20.2643ZM172.978 40.4558C170.906 40.4558 169.271 39.7778 168.12 38.4422C166.961 37.1 166.375 35.1868 166.375 32.7549C166.375 30.2463 166.962 28.283 168.121 26.917C169.272 25.56 170.891 24.8712 172.932 24.8712C174.911 24.8712 176.487 25.529 177.617 26.8273C178.751 28.1324 179.327 30.0801 179.327 32.6178C179.327 35.1868 178.785 37.1601 177.718 38.4802C176.657 39.7903 175.063 40.4558 172.978 40.4558ZM173.232 20.2643C169.277 20.2643 166.136 21.4073 163.898 23.6618C161.66 25.9164 160.525 29.0366 160.525 32.9364C160.525 36.6419 161.633 39.6198 163.818 41.7903C166.003 43.9616 168.976 45.0615 172.654 45.0615C176.486 45.0615 179.565 43.9025 181.804 41.6168C184.041 39.3337 185.176 36.243 185.176 32.4343C185.176 28.6724 184.111 25.6708 182.011 23.5147C179.91 21.3577 176.956 20.2643 173.232 20.2643ZM151.857 24.9311V20.8342H146.216V44.4911H151.857V32.3897C151.857 30.3319 152.33 28.6414 153.263 27.3646C154.184 26.1029 155.412 25.4636 156.911 25.4636C157.419 25.4636 157.99 25.5462 158.607 25.7097C159.219 25.8723 159.661 26.0487 159.923 26.2345L160.16 26.404V20.7937L160.068 20.755C159.543 20.5349 158.8 20.4238 157.86 20.4238C156.442 20.4238 155.174 20.8731 154.087 21.7578C153.133 22.5354 152.444 23.6016 151.917 24.9311H151.857ZM136.115 20.2643C133.527 20.2643 131.219 20.8117 129.256 21.8909C127.289 22.9725 125.767 24.5167 124.732 26.4804C123.701 28.4392 123.178 30.7274 123.178 33.2791C123.178 35.5143 123.685 37.5655 124.688 39.3734C125.691 41.1842 127.111 42.6009 128.909 43.5834C130.704 44.5647 132.779 45.0622 135.076 45.0622C137.756 45.0622 140.045 44.5335 141.88 43.4908L141.954 43.4489V38.3506L141.717 38.5214C140.886 39.1188 139.957 39.5956 138.957 39.939C137.961 40.2823 137.052 40.4558 136.255 40.4558C134.041 40.4558 132.264 39.7725 130.975 38.4255C129.682 37.0768 129.027 35.1828 129.027 32.7996C129.027 30.4013 129.71 28.4587 131.057 27.0253C132.4 25.5962 134.18 24.8712 136.348 24.8712C138.202 24.8712 140.008 25.4906 141.718 26.7138L141.954 26.8833V21.5114L141.878 21.469C141.234 21.1138 140.357 20.8204 139.268 20.598C138.184 20.3761 137.123 20.2643 136.115 20.2643ZM119.293 20.8344H113.653V44.4911H119.293V20.8344ZM116.531 10.7565C115.602 10.7565 114.793 11.0683 114.127 11.6861C113.459 12.3057 113.12 13.0858 113.12 14.0065C113.12 14.9126 113.455 15.6785 114.117 16.2816C114.774 16.883 115.587 17.1878 116.531 17.1878C117.475 17.1878 118.29 16.883 118.955 16.2826C119.625 15.6785 119.965 14.9129 119.965 14.0065C119.965 13.118 119.634 12.3459 118.983 11.7111C118.332 11.0775 117.507 10.7565 116.531 10.7565ZM102.457 19.089V44.4911H108.213V11.4807H100.246L90.1192 35.9998L80.2917 11.4807H72V44.4908H77.4096V19.0865H77.5953L87.973 44.4911H92.0554L102.271 19.089H102.457Z" fill="#706D6E"/>
<path d="M26 27.0625H0V0.0625H26V27.0625Z" fill="#F1511B"/>
<path d="M56 27.0625H29V0.0625H56V27.0625Z" fill="#80CC28"/>
<path d="M26 56.0625H0V30.0625H26V56.0625Z" fill="#00ADEF"/>
<path d="M56 56.0625H29V30.0625H56V56.0625Z" fill="#FBBC09"/>
</svg>
