<svg width="263" height="87" viewBox="0 0 263 87" fill="none" xmlns="http://www.w3.org/2000/svg">
<path d="M75.7795 4.367C78.6192 -1.08981 69.4187 0.444918 69.4187 0.444918C66.1247 0.444918 64.6481 4.42384 63.9666 5.56068L54.0279 25.1711C52.1537 28.4111 45.9633 42.2805 43.9187 45.3499C43.7483 42.2236 43.9755 35.971 44.0323 34.4931C44.4298 28.5816 44.8274 24.0911 45.4521 18.6911C45.9065 14.4848 46.8152 9.76697 45.9633 5.56068C45.3953 2.94596 44.5434 2.77543 40.7951 2.37754C36.8764 1.97965 34.2071 7.66382 32.9009 10.3354C28.1303 20.2258 22.7917 29.889 18.5323 40.0068C17.2828 42.9626 15.7494 45.9183 14.4432 48.8172C12.9098 52.3414 11.4899 55.8088 9.84295 59.2761C8.08237 62.914 2.57346 74.8508 1.04005 78.6023C-0.663741 82.6949 -1.0045 85.9918 5.81065 85.8212C6.88972 85.8212 9.27502 86.0486 12.2283 82.8655C14.5568 80.3644 15.0111 78.0339 16.3741 74.5666C21.2583 62.2887 24.7227 54.1604 30.0612 41.9962C30.5724 40.8026 31.765 37.3352 32.9577 34.6637C32.9009 38.4721 32.2762 43.0194 31.9922 46.032C31.0835 57.0593 30.4588 67.6887 29.4933 78.6023C29.3797 80.0802 28.9822 81.8423 29.6637 83.2065C30.3452 84.5707 32.049 84.9118 33.412 85.0823C38.8641 85.7644 39.4321 83.036 41.1359 79.2844C42.6693 75.9308 43.578 73.2024 44.941 69.7919C49.1437 59.2761 53.5735 48.8741 58.4577 38.6426C59.7071 36.0279 60.9566 33.47 62.3196 30.9121C64.8185 26.1942 66.8631 21.7606 69.5891 16.5311C71.6337 12.7796 73.6214 8.51645 75.7795 4.367ZM262.912 33.9816C262.288 27.6721 253.655 30.8553 248.487 31.8216C246.556 32.1626 240.593 33.2995 233.721 34.6068C233.437 27.5016 233.55 28.9226 233.494 24.6027C233.323 18.3501 232.982 13.4617 232.642 7.94803C232.414 4.48068 231.903 -0.350866 225.656 0.558602C218.387 1.58175 217.194 5.21963 215.263 9.59644C210.208 21.0216 210.379 21.0785 204.643 33.811C204.188 34.7773 202.087 39.8931 201.746 40.9162C201.519 40.9731 201.065 41.0868 200.497 41.2573C198.168 41.7689 195.329 42.3941 192.205 43.0762L192.262 42.792C193 36.9942 193.909 31.1963 194.704 25.3984C195.442 20.1122 196.237 11.4722 196.862 6.18594C197.544 0.501761 190.956 0.615443 190.956 0.615443C186.923 0.388076 185.39 1.58175 182.834 4.87857C178.461 10.5627 173.179 16.7017 168.522 22.9543C160.06 34.2658 153.87 42.792 146.203 54.1604C143.988 57.4572 140.58 62.4593 137.627 66.3814C135.639 62.4593 133.936 58.1393 132.289 54.1604C129.903 48.4762 128.143 44.952 127.007 41.2005C125.985 37.9036 127.234 37.4489 129.676 35.5731C136.718 30.23 144.669 26.5353 151.882 21.4195C156.993 17.7817 163.127 13.7459 168.125 9.99433C168.125 9.99433 171.021 8.28908 172.611 6.12909C174.599 3.40069 168.977 0.558602 168.977 0.558602C165.796 0.047026 164.036 0.785969 161.821 1.80912C159.549 2.83227 156.596 5.16278 154.665 6.69751C150.405 9.99433 145.01 13.9164 140.807 17.2132C136.266 20.8566 131.463 24.1623 126.439 27.1037L140.864 5.50383C145.578 -0.578233 133.084 -2.28349 128.313 4.13963C123.883 9.88065 120.873 14.9396 117.409 20.169C109.06 32.6174 102.188 45.691 95.3163 59.3898C92.7038 64.6193 90.1482 70.0761 87.7629 75.476C86.627 78.0908 83.2762 84.116 87.8764 84.7412C97.7016 85.9918 99.2918 81.3307 101.507 75.7034C105.141 66.4382 106.334 64.7329 108.663 58.9919C110.548 54.3568 112.71 49.8392 115.137 45.4636C115.194 45.4067 115.932 44.2131 115.932 44.2131C116.386 45.1794 119.397 55.1835 119.794 56.3204C121.839 61.7203 125.417 74.3392 127.461 80.0802C128.938 84.8549 129.335 86.2191 135.753 86.0486C138.933 85.9918 140.296 84.7412 142.398 80.7623C144.499 76.7834 153.586 59.8446 153.586 59.8446C156.312 59.3898 160.231 58.7077 162.786 58.253C163.241 58.1961 164.263 57.9688 165.683 57.6846C166.488 57.5926 167.285 57.4406 168.068 57.2298C168.125 57.2298 168.125 57.2298 168.182 57.173C170.681 56.6614 173.861 56.0362 177.325 55.3541C176.701 58.4803 174.77 65.3582 174.372 67.1203C174.372 67.1203 170.169 83.4907 175.622 84.3433C179.029 84.8549 180.79 84.2865 180.79 84.2865C187.15 83.5476 187.264 74.9645 187.264 74.9645L190.728 52.7393C193.227 52.2278 195.726 51.7162 198.168 51.2614L190.672 76.6129C189.593 80.1939 188.798 84.7981 195.215 84.7981C200.44 85.0823 200.781 81.7855 200.781 81.7855C200.894 81.2739 205.04 67.9161 206.063 63.1414C206.744 60.0719 209.186 52.1709 210.152 48.9878C212.878 48.4762 214.922 48.0783 215.888 47.9078C217.024 47.7373 219.239 47.3394 222.135 46.8846C222.078 49.8404 222.135 53.933 222.192 54.5014C222.816 63.4824 222.135 72.8045 224.009 81.6149C224.293 83.036 224.861 84.8549 226.678 84.8549C228.837 84.8549 229.518 84.6276 231.79 84.457C238.378 83.8886 237.185 77.2381 236.788 73.0318C236.333 68.3708 235.879 64.4487 235.254 59.7877C234.654 54.8652 234.35 49.911 234.345 44.952V44.8383C245.136 43.0194 256.779 41.0299 258.482 40.7457C261.208 40.0068 263.48 40.2341 262.912 33.9816ZM178.575 45.9183C178.575 45.9752 178.518 45.9752 178.518 46.032C170.965 47.6804 163.865 49.272 159.89 50.1815C163.865 43.531 181.358 19.3164 184.027 16.4743C182.55 23.9774 180.165 37.9036 178.575 45.9183ZM222.192 36.3689V36.7668C218.557 37.4489 215.149 38.131 212.423 38.6426C215.888 29.6616 219.522 18.6343 221.681 13.0638C221.51 17.2132 222.362 32.2763 222.192 36.3689ZM116.273 9.59644C117.409 7.4933 119.964 3.34385 116.784 1.75228C114.91 0.84281 112.411 0.274394 110.48 1.2407C108.89 2.09333 107.697 3.74174 106.902 5.27647L94.7484 24.4321C92.7606 27.1605 90.8865 30.571 86.8542 31.0258C84.1849 31.31 82.2539 30.1732 82.3107 27.7858C82.3675 25.3416 83.7873 22.1016 84.8664 19.9985C88.0468 13.9733 88.4444 11.927 91.5112 5.95857C94.4644 0.217551 84.8096 -1.08981 82.4243 3.05964C80.7205 6.01541 77.4265 11.5859 76.6882 13.4617C75.3252 16.8722 65.1025 33.1289 69.5323 39.552C75.2116 46.8278 90.3185 35.3458 82.5947 48.5899C76.3475 59.2193 72.4288 65.3014 66.9766 75.135C65.784 77.2381 64.3074 79.3413 63.9098 81.8423C63.3419 85.3665 68.1693 85.3097 70.2706 85.196C73.9622 84.9118 75.7227 83.2065 77.1994 79.8528C77.9945 78.0908 79.0735 75.9308 79.8686 74.1687C87.0246 58.5372 94.6348 44.952 104.062 29.8321C108.549 22.67 112.525 16.5311 116.273 9.59644Z" fill="#FC2779"/>
</svg>
