<svg width="275" height="275" viewBox="0 0 275 275" fill="none" xmlns="http://www.w3.org/2000/svg">
<circle cx="137.5" cy="137.5" r="137.5" fill="#FFE35C"/>
<path d="M128.255 90.24C122.105 90.57 116.295 93.13 111.865 97.55C109.965 99.47 108.365 101.68 107.135 104.16C106.875 104.69 106.995 105.34 107.445 105.72C108.095 106.26 108.815 105.97 109.035 105.81C112.385 103.53 116.225 102.25 120.215 102.07C122.325 97.73 125.035 93.76 128.255 90.24ZM139.165 135.94C138.825 136.42 138.845 137.1 139.255 137.53C139.915 138.23 140.635 137.93 140.815 137.84C143.295 136.6 145.505 135.01 147.425 133.11C151.815 128.71 154.365 122.95 154.735 116.84C151.195 120.03 147.205 122.7 142.905 124.77C142.725 128.77 141.445 132.61 139.165 135.94ZM129.545 127.27L117.715 115.44C117.625 115.35 117.545 115.26 117.465 115.17C114.465 119.22 110.715 131.61 110.275 133.1C110.135 133.56 110.265 134.05 110.605 134.39C110.855 134.65 111.315 134.86 111.895 134.73C113.395 134.27 125.785 130.53 129.835 127.54C129.725 127.45 129.635 127.36 129.545 127.27ZM115.095 106.32C114.585 105.81 113.765 105.81 113.255 106.32L110.595 108.98C110.085 109.49 110.085 110.31 110.595 110.82C110.845 111.07 111.665 111.52 112.435 110.82L115.095 108.16C115.605 107.65 115.605 106.83 115.095 106.32ZM113.255 112.86L110.595 115.52C110.085 116.03 110.085 116.85 110.595 117.36C110.845 117.61 111.525 118.08 112.435 117.36L115.095 114.7C115.605 114.19 115.605 113.37 115.095 112.86C114.585 112.35 113.765 112.35 113.255 112.86ZM130.255 129.8L127.595 132.46C127.085 132.97 127.085 133.79 127.595 134.3C127.845 134.55 128.555 135.03 129.435 134.3L132.095 131.64C132.605 131.13 132.605 130.31 132.095 129.8C131.585 129.29 130.765 129.29 130.255 129.8ZM138.635 129.8C138.125 129.29 137.305 129.29 136.795 129.8L134.135 132.46C133.625 132.97 133.625 133.79 134.135 134.3C134.385 134.55 135.095 135.01 135.975 134.3L138.635 131.64C139.145 131.13 139.145 130.31 138.635 129.8ZM151.935 101.79C154.345 99.38 154.385 95.41 151.935 93.05C148.505 89.74 144.575 91.58 143.195 93.05C140.865 95.53 140.785 99.38 143.195 101.79C145.595 104.2 149.525 104.2 151.935 101.79ZM168.975 77.28C168.955 76.58 168.395 76.03 167.705 76.01C167.295 76 166.895 76 166.485 76C160.675 76 155.085 77 149.875 78.84L166.175 95.14C168.155 89.53 169.125 83.5 168.975 77.28Z" fill="#3F3F3F"/>
<path d="M119.205 112.35C119.095 112.8 119.225 113.27 119.545 113.59L131.385 125.43C131.845 125.93 132.525 125.8 132.625 125.77C141.035 123.63 148.715 119.27 154.825 113.16C159.295 108.69 162.755 103.49 165.145 97.8L147.215 79.86C133.585 85.6 123.035 97.33 119.205 112.35ZM153.775 91.2C157.205 94.63 157.345 100.35 153.775 103.63C148.605 108.37 143.065 105.34 141.345 103.63C137.915 100.2 137.915 94.63 141.345 91.2C144.775 87.78 150.345 87.78 153.775 91.2Z" fill="#3F3F3F"/>
<path d="M82.2955 181V157.727H91.0227C92.8106 157.727 94.3106 158.061 95.5227 158.727C96.7424 159.394 97.6629 160.311 98.2841 161.477C98.9129 162.636 99.2273 163.955 99.2273 165.432C99.2273 166.924 98.9129 168.25 98.2841 169.409C97.6553 170.568 96.7273 171.481 95.5 172.148C94.2727 172.807 92.7614 173.136 90.9659 173.136H85.1818V169.67H90.3977C91.4432 169.67 92.2992 169.489 92.9659 169.125C93.6326 168.761 94.125 168.261 94.4432 167.625C94.7689 166.989 94.9318 166.258 94.9318 165.432C94.9318 164.606 94.7689 163.879 94.4432 163.25C94.125 162.621 93.6288 162.133 92.9545 161.784C92.2879 161.428 91.428 161.25 90.375 161.25H86.5114V181H82.2955ZM113.832 173.659V163.545H117.946V181H113.957V177.898H113.776C113.382 178.875 112.734 179.674 111.832 180.295C110.938 180.917 109.836 181.227 108.526 181.227C107.382 181.227 106.37 180.973 105.491 180.466C104.62 179.951 103.938 179.205 103.446 178.227C102.954 177.242 102.707 176.053 102.707 174.659V163.545H106.821V174.023C106.821 175.129 107.124 176.008 107.73 176.659C108.336 177.311 109.132 177.636 110.116 177.636C110.723 177.636 111.31 177.489 111.878 177.193C112.446 176.898 112.912 176.458 113.276 175.875C113.647 175.284 113.832 174.545 113.832 173.659ZM122.358 181V157.727H126.472V166.432H126.642C126.854 166.008 127.153 165.557 127.54 165.08C127.926 164.595 128.449 164.182 129.108 163.841C129.767 163.492 130.608 163.318 131.631 163.318C132.979 163.318 134.195 163.663 135.278 164.352C136.369 165.034 137.233 166.045 137.869 167.386C138.513 168.72 138.835 170.356 138.835 172.295C138.835 174.212 138.521 175.841 137.892 177.182C137.263 178.523 136.407 179.545 135.324 180.25C134.241 180.955 133.013 181.307 131.642 181.307C130.642 181.307 129.813 181.14 129.153 180.807C128.494 180.473 127.964 180.072 127.562 179.602C127.169 179.125 126.862 178.674 126.642 178.25H126.403V181H122.358ZM126.392 172.273C126.392 173.402 126.551 174.39 126.869 175.239C127.195 176.087 127.661 176.75 128.267 177.227C128.881 177.697 129.623 177.932 130.494 177.932C131.403 177.932 132.165 177.689 132.778 177.205C133.392 176.712 133.854 176.042 134.165 175.193C134.483 174.337 134.642 173.364 134.642 172.273C134.642 171.189 134.487 170.227 134.176 169.386C133.866 168.545 133.403 167.886 132.79 167.409C132.176 166.932 131.411 166.693 130.494 166.693C129.616 166.693 128.869 166.924 128.256 167.386C127.642 167.848 127.176 168.496 126.858 169.33C126.547 170.163 126.392 171.144 126.392 172.273ZM146.446 157.727V181H142.332V157.727H146.446ZM150.676 181V163.545H154.79V181H150.676ZM152.744 161.068C152.093 161.068 151.532 160.852 151.062 160.42C150.593 159.981 150.358 159.455 150.358 158.841C150.358 158.22 150.593 157.693 151.062 157.261C151.532 156.822 152.093 156.602 152.744 156.602C153.403 156.602 153.964 156.822 154.426 157.261C154.896 157.693 155.131 158.22 155.131 158.841C155.131 159.455 154.896 159.981 154.426 160.42C153.964 160.852 153.403 161.068 152.744 161.068ZM172.815 168.159L169.065 168.568C168.959 168.189 168.774 167.833 168.509 167.5C168.251 167.167 167.902 166.898 167.463 166.693C167.024 166.489 166.486 166.386 165.849 166.386C164.993 166.386 164.274 166.572 163.69 166.943C163.115 167.314 162.83 167.795 162.838 168.386C162.83 168.894 163.016 169.307 163.395 169.625C163.781 169.943 164.418 170.205 165.304 170.409L168.281 171.045C169.933 171.402 171.16 171.966 171.963 172.739C172.774 173.511 173.183 174.523 173.19 175.773C173.183 176.871 172.861 177.841 172.224 178.682C171.596 179.515 170.721 180.167 169.599 180.636C168.478 181.106 167.19 181.341 165.736 181.341C163.599 181.341 161.88 180.894 160.577 180C159.274 179.098 158.497 177.845 158.247 176.239L162.259 175.852C162.44 176.64 162.827 177.235 163.418 177.636C164.009 178.038 164.777 178.239 165.724 178.239C166.702 178.239 167.486 178.038 168.077 177.636C168.675 177.235 168.974 176.739 168.974 176.148C168.974 175.648 168.781 175.235 168.395 174.909C168.016 174.583 167.425 174.333 166.622 174.159L163.645 173.534C161.971 173.186 160.732 172.598 159.929 171.773C159.126 170.939 158.728 169.886 158.736 168.614C158.728 167.538 159.02 166.606 159.611 165.818C160.209 165.023 161.039 164.409 162.099 163.977C163.168 163.538 164.399 163.318 165.793 163.318C167.838 163.318 169.448 163.754 170.622 164.625C171.804 165.496 172.535 166.674 172.815 168.159ZM180.696 170.773V181H176.582V157.727H180.605V166.511H180.81C181.219 165.527 181.851 164.75 182.707 164.182C183.571 163.606 184.67 163.318 186.003 163.318C187.215 163.318 188.272 163.572 189.173 164.08C190.075 164.587 190.772 165.33 191.264 166.307C191.764 167.284 192.014 168.477 192.014 169.886V181H187.901V170.523C187.901 169.348 187.598 168.436 186.991 167.784C186.393 167.125 185.552 166.795 184.469 166.795C183.741 166.795 183.09 166.955 182.514 167.273C181.946 167.583 181.499 168.034 181.173 168.625C180.855 169.216 180.696 169.932 180.696 170.773Z" fill="#3F3F3F"/>
</svg>
