<svg width="259" height="87" viewBox="0 0 259 87" fill="none" xmlns="http://www.w3.org/2000/svg">
<g clip-path="url(#clip0_44_478)">
<path d="M258.838 20.5372C255.317 0.312818 194.558 -5.99859 123.124 6.43973C93.1249 11.6661 66.0368 19.3748 44.942 28.0471C48.1824 28.1181 50.5856 28.8612 52.0458 30.3178C53.1874 31.4609 53.7641 33.0297 53.7641 34.9843V36.9905H46.7595V35.2191C46.7595 33.7431 45.8746 32.8284 44.3073 32.8284C42.9902 32.8284 42.1788 33.4232 41.917 34.5946C41.8292 35.0577 41.8389 35.534 41.9454 35.9932C42.6948 39.0573 53.0959 40.9602 54.2272 46.615C54.3755 47.3426 54.5767 48.8998 54.2594 51.1279C53.6106 55.6886 49.6039 57.4483 44.5034 57.4483C37.384 57.4483 34.4919 54.0759 34.4919 49.4262L34.4971 47.2265H42.006L42.0099 49.9668C42.0099 51.5072 43.1296 52.3574 44.6543 52.3574C46.0991 52.3574 46.9427 51.7756 47.2342 50.586C47.3697 50.039 47.429 49.2327 47.1826 48.616C45.7933 45.13 36.0812 43.5018 34.8854 37.8652C34.6183 36.5982 34.5964 35.5197 34.8183 34.156C34.9321 33.48 35.1415 32.8236 35.4401 32.2066C12.0413 43.1509 -1.64655 55.1932 0.161988 65.5905C3.68747 85.8174 64.445 92.1224 135.877 79.6841C167.277 74.2177 195.507 66.0343 216.992 56.8639C216.681 56.8794 216.379 56.9129 216.056 56.9129C211.167 56.9129 206.802 55.0809 206.349 50.0829C206.269 49.1733 206.255 48.7927 206.253 48.2741L206.255 36.784C206.255 36.2886 206.313 35.4191 206.369 34.9701C206.948 30.1398 210.766 28.1478 216.059 28.1478C220.155 28.1478 225.176 29.3231 225.728 34.9739C225.802 35.6835 225.794 36.4408 225.793 36.6898V37.7749H218.719V36.1557C218.719 36.1209 218.708 35.5158 218.631 35.1378C218.515 34.5611 218.024 33.2245 216.009 33.2245C214.018 33.2245 213.502 34.5637 213.373 35.1391C213.3 35.4552 213.265 35.9093 213.265 36.4125V48.8998C213.258 49.3333 213.28 49.6726 213.324 49.9216C213.359 50.1177 213.716 51.8388 216.033 51.8388C218.333 51.8388 218.689 50.1177 218.721 49.9216C218.782 49.5836 218.79 49.1811 218.787 48.8998V45.0307H216.003V40.8635H225.847V48.2767C225.845 48.7811 225.837 49.154 225.752 50.0829C225.633 51.3937 225.22 52.5032 224.573 53.4515C247.357 42.631 260.623 30.7835 258.838 20.5372ZM73.6141 56.3814L70.0306 32.0285H69.9016L66.2264 56.3814H58.6737L63.7536 28.8793H76.0766L81.1256 56.3814H73.6141ZM109.942 56.3814L109.776 32.4994H109.655L105.211 56.3814H98.1222L93.7002 32.4994H93.5738L93.4125 56.3814H86.3887L86.9975 28.8793H98.2951L101.584 49.3088H101.746L105.044 28.8793H116.337L116.943 56.3814H109.942ZM143.018 51.0518C142.262 56.3788 137.044 57.3103 133.356 57.3103C127.233 57.3103 123.446 54.6926 123.446 49.3656L123.449 47.1929H130.868L130.873 49.8997C130.873 51.3692 131.909 52.2684 133.509 52.2684C134.935 52.2684 135.771 51.6956 136.061 50.519C136.196 49.9706 136.251 49.1707 136.014 48.567C134.646 45.1468 125.01 43.4709 123.839 37.9219C123.571 36.664 123.551 35.5958 123.772 34.2463C124.587 29.216 129.414 28.171 133.3 28.171C136.775 28.171 139.304 28.9296 140.821 30.4468C141.953 31.5796 142.526 33.1342 142.526 35.0681V37.0524H135.588V35.3016C135.588 33.8025 134.658 32.9355 133.163 32.9355C131.837 32.9355 131.034 33.5251 130.771 34.685C130.686 35.1433 130.697 35.6144 130.805 36.068C131.548 39.1179 141.857 40.9822 142.986 46.584C143.132 47.2987 143.332 48.8327 143.018 51.0518ZM168.712 48.5528C168.722 49.0688 168.672 50.0997 168.644 50.3641C168.22 54.8951 164.98 57.1981 159.037 57.1981C153.071 57.1981 149.828 54.8951 149.408 50.3641C149.36 49.7633 149.337 49.1607 149.339 48.5579V28.8728H156.437V49.1785C156.429 49.6326 156.452 49.9681 156.497 50.2016C156.585 50.6531 157.034 52.1187 159.037 52.1187C161.034 52.1187 161.483 50.6518 161.577 50.2067C161.617 49.9668 161.642 49.6146 161.642 49.1772V28.8728H168.712V48.5528ZM199.291 56.1014H189.415L182.785 34.3173H182.674L183.042 56.1014H176.159V28.8793H186.449L192.576 49.8055H192.719L192.357 28.8793H199.291V56.1014Z" fill="#2D4F9E"/>
</g>
<defs>
<clipPath id="clip0_44_478">
<rect width="259" height="86" fill="white" transform="translate(0 0.0625)"/>
</clipPath>
</defs>
</svg>
