<svg width="266" height="293" viewBox="0 0 266 293" fill="none" xmlns="http://www.w3.org/2000/svg">
<path d="M41 291.625C35.6939 291.625 31.375 287.307 31.375 282C31.375 276.693 35.6939 272.375 41 272.375C46.3061 272.375 50.625 276.693 50.625 282C50.625 287.307 46.3061 291.625 41 291.625ZM41 273.75C36.4501 273.75 32.75 277.45 32.75 282C32.75 286.55 36.4501 290.25 41 290.25C45.5499 290.25 49.25 286.55 49.25 282C49.25 277.45 45.5499 273.75 41 273.75Z" fill="#1461FF"/>
<path d="M41 284.98C42.6456 284.98 43.9796 283.646 43.9796 282C43.9796 280.354 42.6456 279.02 41 279.02C39.3544 279.02 38.0204 280.354 38.0204 282C38.0204 283.646 39.3544 284.98 41 284.98Z" fill="#00B0F0"/>
<path d="M70.8239 282.909C70.8239 283.983 70.63 284.911 70.2422 285.693C69.8544 286.475 69.3224 287.079 68.6463 287.503C67.9702 287.927 67.1979 288.139 66.3295 288.139C65.4612 288.139 64.6889 287.927 64.0128 287.503C63.3366 287.079 62.8047 286.475 62.4169 285.693C62.0291 284.911 61.8352 283.983 61.8352 282.909C61.8352 281.835 62.0291 280.907 62.4169 280.125C62.8047 279.343 63.3366 278.74 64.0128 278.315C64.6889 277.891 65.4612 277.679 66.3295 277.679C67.1979 277.679 67.9702 277.891 68.6463 278.315C69.3224 278.74 69.8544 279.343 70.2422 280.125C70.63 280.907 70.8239 281.835 70.8239 282.909ZM69.6307 282.909C69.6307 282.027 69.4832 281.283 69.1882 280.677C68.8965 280.07 68.5005 279.611 68 279.3C67.5028 278.988 66.946 278.832 66.3295 278.832C65.7131 278.832 65.1546 278.988 64.6541 279.3C64.157 279.611 63.7609 280.07 63.4659 280.677C63.1742 281.283 63.0284 282.027 63.0284 282.909C63.0284 283.791 63.1742 284.535 63.4659 285.141C63.7609 285.748 64.157 286.207 64.6541 286.518C65.1546 286.83 65.7131 286.986 66.3295 286.986C66.946 286.986 67.5028 286.83 68 286.518C68.5005 286.207 68.8965 285.748 69.1882 285.141C69.4832 284.535 69.6307 283.791 69.6307 282.909ZM76.1385 280.364V281.358H72.022V280.364H76.1385ZM73.255 288V279.31C73.255 278.872 73.3577 278.508 73.5632 278.216C73.7687 277.924 74.0355 277.705 74.3636 277.56C74.6918 277.414 75.0381 277.341 75.4027 277.341C75.6911 277.341 75.9264 277.364 76.1087 277.411C76.291 277.457 76.4268 277.5 76.5163 277.54L76.1783 278.554C76.1186 278.534 76.0357 278.509 75.9297 278.479C75.8269 278.45 75.6911 278.435 75.522 278.435C75.1342 278.435 74.8542 278.532 74.6818 278.728C74.5128 278.924 74.4283 279.21 74.4283 279.588V288H73.255ZM81.1834 280.364V281.358H77.0669V280.364H81.1834ZM78.2999 288V279.31C78.2999 278.872 78.4026 278.508 78.6081 278.216C78.8136 277.924 79.0804 277.705 79.4086 277.56C79.7367 277.414 80.083 277.341 80.4476 277.341C80.736 277.341 80.9713 277.364 81.1536 277.411C81.3359 277.457 81.4718 277.5 81.5613 277.54L81.2232 278.554C81.1635 278.534 81.0807 278.509 80.9746 278.479C80.8719 278.45 80.736 278.435 80.5669 278.435C80.1792 278.435 79.8991 278.532 79.7267 278.728C79.5577 278.924 79.4732 279.21 79.4732 279.588V288H78.2999ZM89.8675 288.159C89.1516 288.159 88.5352 287.99 88.0181 287.652C87.5011 287.314 87.1033 286.848 86.8249 286.255C86.5465 285.662 86.4073 284.984 86.4073 284.222C86.4073 283.446 86.5498 282.762 86.8349 282.168C87.1232 281.572 87.5243 281.106 88.038 280.771C88.555 280.433 89.1583 280.264 89.8477 280.264C90.3846 280.264 90.8685 280.364 91.2994 280.562C91.7302 280.761 92.0832 281.04 92.3583 281.398C92.6334 281.756 92.8041 282.173 92.8704 282.651H91.6971C91.6076 282.303 91.4087 281.994 91.1005 281.726C90.7956 281.454 90.3846 281.318 89.8675 281.318C89.4102 281.318 89.0091 281.437 88.6644 281.676C88.323 281.911 88.0562 282.245 87.864 282.675C87.6751 283.103 87.5806 283.605 87.5806 284.182C87.5806 284.772 87.6734 285.286 87.859 285.723C88.0479 286.161 88.3131 286.5 88.6545 286.742C88.9992 286.984 89.4035 287.105 89.8675 287.105C90.1725 287.105 90.4492 287.052 90.6978 286.946C90.9464 286.84 91.1568 286.688 91.3292 286.489C91.5015 286.29 91.6242 286.051 91.6971 285.773H92.8704C92.8041 286.223 92.64 286.629 92.3782 286.991C92.1197 287.349 91.7766 287.634 91.3491 287.846C90.9248 288.055 90.431 288.159 89.8675 288.159ZM96.8327 288.179C96.3488 288.179 95.9097 288.088 95.5153 287.906C95.1209 287.72 94.8076 287.453 94.5756 287.105C94.3436 286.754 94.2276 286.33 94.2276 285.832C94.2276 285.395 94.3138 285.04 94.4862 284.768C94.6585 284.493 94.8888 284.278 95.1772 284.122C95.4656 283.966 95.7837 283.85 96.1317 283.774C96.4831 283.695 96.8361 283.632 97.1907 283.585C97.6547 283.526 98.0309 283.481 98.3192 283.451C98.6109 283.418 98.823 283.363 98.9556 283.287C99.0915 283.211 99.1594 283.078 99.1594 282.889V282.849C99.1594 282.359 99.0252 281.978 98.7567 281.706C98.4916 281.434 98.0889 281.298 97.5487 281.298C96.9885 281.298 96.5494 281.421 96.2312 281.666C95.913 281.911 95.6893 282.173 95.56 282.452L94.4464 282.054C94.6452 281.59 94.9104 281.229 95.2418 280.97C95.5766 280.708 95.9412 280.526 96.3356 280.423C96.7333 280.317 97.1244 280.264 97.5089 280.264C97.7541 280.264 98.0359 280.294 98.354 280.354C98.6755 280.41 98.9854 280.528 99.2837 280.707C99.5853 280.886 99.8356 281.156 100.034 281.517C100.233 281.878 100.333 282.362 100.333 282.969V288H99.1594V286.966H99.0998C99.0202 287.132 98.8877 287.309 98.7021 287.498C98.5165 287.687 98.2695 287.848 97.9613 287.98C97.6531 288.113 97.2769 288.179 96.8327 288.179ZM97.0117 287.125C97.4757 287.125 97.8668 287.034 98.185 286.852C98.5065 286.669 98.7485 286.434 98.9109 286.146C99.0766 285.857 99.1594 285.554 99.1594 285.236V284.162C99.1097 284.222 99.0004 284.276 98.8313 284.326C98.6656 284.372 98.4734 284.414 98.2546 284.45C98.0392 284.483 97.8287 284.513 97.6232 284.54C97.421 284.563 97.257 284.583 97.131 284.599C96.8261 284.639 96.5411 284.704 96.2759 284.793C96.0141 284.879 95.802 285.01 95.6396 285.186C95.4805 285.358 95.4009 285.594 95.4009 285.892C95.4009 286.3 95.5517 286.608 95.8533 286.817C96.1583 287.022 96.5444 287.125 97.0117 287.125ZM102.474 288V280.364H103.608V281.557H103.707C103.866 281.149 104.123 280.833 104.478 280.607C104.832 280.379 105.258 280.264 105.756 280.264C106.259 280.264 106.679 280.379 107.013 280.607C107.351 280.833 107.615 281.149 107.804 281.557H107.883C108.079 281.162 108.372 280.849 108.763 280.617C109.154 280.382 109.623 280.264 110.17 280.264C110.853 280.264 111.412 280.478 111.846 280.906C112.28 281.33 112.497 281.991 112.497 282.889V288H111.324V282.889C111.324 282.326 111.17 281.923 110.861 281.681C110.553 281.439 110.19 281.318 109.773 281.318C109.236 281.318 108.82 281.481 108.525 281.805C108.23 282.127 108.082 282.535 108.082 283.028V288H106.889V282.77C106.889 282.336 106.748 281.986 106.466 281.721C106.185 281.452 105.822 281.318 105.378 281.318C105.073 281.318 104.788 281.399 104.523 281.562C104.261 281.724 104.049 281.95 103.886 282.238C103.727 282.523 103.648 282.853 103.648 283.227V288H102.474ZM114.642 290.864V280.364H115.776V281.577H115.915C116.001 281.444 116.12 281.275 116.273 281.07C116.429 280.861 116.651 280.675 116.939 280.513C117.231 280.347 117.625 280.264 118.122 280.264C118.765 280.264 119.332 280.425 119.823 280.746C120.313 281.068 120.696 281.524 120.971 282.114C121.246 282.704 121.384 283.4 121.384 284.202C121.384 285.01 121.246 285.711 120.971 286.305C120.696 286.895 120.315 287.352 119.828 287.677C119.34 287.998 118.779 288.159 118.142 288.159C117.652 288.159 117.259 288.078 116.964 287.915C116.669 287.75 116.442 287.562 116.283 287.354C116.124 287.142 116.001 286.966 115.915 286.827H115.816V290.864H114.642ZM115.796 284.182C115.796 284.759 115.88 285.267 116.049 285.708C116.218 286.146 116.465 286.489 116.79 286.737C117.115 286.982 117.512 287.105 117.983 287.105C118.474 287.105 118.883 286.976 119.211 286.717C119.543 286.455 119.791 286.104 119.957 285.663C120.126 285.219 120.21 284.725 120.21 284.182C120.21 283.645 120.128 283.161 119.962 282.73C119.799 282.296 119.552 281.953 119.221 281.701C118.893 281.446 118.48 281.318 117.983 281.318C117.506 281.318 117.105 281.439 116.78 281.681C116.455 281.92 116.21 282.254 116.044 282.685C115.878 283.113 115.796 283.612 115.796 284.182ZM127.986 284.878V280.364H129.159V288H127.986V286.707H127.906C127.727 287.095 127.449 287.425 127.071 287.697C126.693 287.965 126.216 288.099 125.639 288.099C125.162 288.099 124.738 287.995 124.367 287.786C123.995 287.574 123.704 287.256 123.492 286.832C123.28 286.404 123.173 285.866 123.173 285.216V280.364H124.347V285.136C124.347 285.693 124.503 286.137 124.814 286.469C125.129 286.8 125.53 286.966 126.017 286.966C126.309 286.966 126.606 286.891 126.907 286.742C127.212 286.593 127.467 286.364 127.673 286.056C127.882 285.748 127.986 285.355 127.986 284.878ZM136.717 282.074L135.663 282.372C135.597 282.196 135.499 282.026 135.37 281.86C135.244 281.691 135.072 281.552 134.853 281.442C134.634 281.333 134.354 281.278 134.013 281.278C133.545 281.278 133.156 281.386 132.844 281.602C132.536 281.814 132.382 282.084 132.382 282.412C132.382 282.704 132.488 282.934 132.7 283.103C132.912 283.272 133.244 283.413 133.695 283.526L134.828 283.804C135.511 283.97 136.02 284.223 136.354 284.565C136.689 284.903 136.857 285.339 136.857 285.872C136.857 286.31 136.731 286.701 136.479 287.045C136.23 287.39 135.882 287.662 135.435 287.861C134.987 288.06 134.467 288.159 133.874 288.159C133.095 288.159 132.45 287.99 131.94 287.652C131.429 287.314 131.106 286.82 130.97 286.17L132.084 285.892C132.19 286.303 132.39 286.611 132.685 286.817C132.984 287.022 133.373 287.125 133.854 287.125C134.401 287.125 134.835 287.009 135.156 286.777C135.481 286.542 135.643 286.26 135.643 285.932C135.643 285.667 135.551 285.445 135.365 285.266C135.179 285.083 134.894 284.947 134.51 284.858L133.237 284.56C132.538 284.394 132.024 284.137 131.696 283.789C131.371 283.438 131.209 282.999 131.209 282.472C131.209 282.041 131.33 281.66 131.572 281.328C131.817 280.997 132.15 280.737 132.571 280.548C132.995 280.359 133.476 280.264 134.013 280.264C134.768 280.264 135.362 280.43 135.793 280.761C136.227 281.093 136.535 281.53 136.717 282.074ZM142.222 277.341L138.941 289.531H137.867L141.148 277.341H142.222ZM147.71 288V277.818H148.942V282.352H154.371V277.818H155.604V288H154.371V283.446H148.942V288H147.71ZM157.914 288V280.364H159.087V288H157.914ZM158.51 279.091C158.282 279.091 158.084 279.013 157.919 278.857C157.756 278.701 157.675 278.514 157.675 278.295C157.675 278.077 157.756 277.889 157.919 277.734C158.084 277.578 158.282 277.5 158.51 277.5C158.739 277.5 158.935 277.578 159.097 277.734C159.263 277.889 159.346 278.077 159.346 278.295C159.346 278.514 159.263 278.701 159.097 278.857C158.935 279.013 158.739 279.091 158.51 279.091ZM164.318 291.023C163.752 291.023 163.264 290.95 162.857 290.804C162.449 290.661 162.109 290.473 161.838 290.237C161.569 290.005 161.355 289.757 161.196 289.491L162.131 288.835C162.237 288.974 162.371 289.134 162.534 289.312C162.696 289.495 162.918 289.652 163.2 289.785C163.485 289.921 163.858 289.989 164.318 289.989C164.935 289.989 165.444 289.839 165.845 289.541C166.246 289.243 166.446 288.776 166.446 288.139V286.588H166.347C166.261 286.727 166.138 286.9 165.979 287.105C165.823 287.307 165.598 287.488 165.303 287.647C165.011 287.803 164.617 287.881 164.119 287.881C163.503 287.881 162.95 287.735 162.459 287.443C161.972 287.152 161.586 286.727 161.301 286.17C161.019 285.614 160.878 284.937 160.878 284.142C160.878 283.36 161.016 282.679 161.291 282.099C161.566 281.515 161.949 281.065 162.439 280.746C162.93 280.425 163.496 280.264 164.139 280.264C164.637 280.264 165.031 280.347 165.323 280.513C165.618 280.675 165.843 280.861 165.999 281.07C166.158 281.275 166.28 281.444 166.367 281.577H166.486V280.364H167.619V288.219C167.619 288.875 167.47 289.409 167.172 289.82C166.877 290.234 166.479 290.537 165.979 290.729C165.482 290.925 164.928 291.023 164.318 291.023ZM164.279 286.827C164.749 286.827 165.147 286.719 165.472 286.504C165.797 286.288 166.044 285.978 166.213 285.574C166.382 285.17 166.466 284.686 166.466 284.122C166.466 283.572 166.383 283.086 166.218 282.665C166.052 282.245 165.807 281.915 165.482 281.676C165.157 281.437 164.756 281.318 164.279 281.318C163.781 281.318 163.367 281.444 163.036 281.696C162.708 281.948 162.461 282.286 162.295 282.71C162.133 283.134 162.051 283.605 162.051 284.122C162.051 284.652 162.134 285.121 162.3 285.529C162.469 285.933 162.718 286.252 163.046 286.484C163.377 286.712 163.788 286.827 164.279 286.827ZM170.941 283.406V288H169.767V277.818H170.941V281.557H171.04C171.219 281.162 171.487 280.849 171.845 280.617C172.207 280.382 172.687 280.264 173.287 280.264C173.807 280.264 174.263 280.369 174.654 280.577C175.045 280.783 175.349 281.099 175.564 281.527C175.783 281.951 175.892 282.491 175.892 283.148V288H174.719V283.227C174.719 282.621 174.561 282.152 174.247 281.82C173.935 281.486 173.503 281.318 172.949 281.318C172.565 281.318 172.22 281.399 171.915 281.562C171.613 281.724 171.375 281.961 171.199 282.273C171.027 282.584 170.941 282.962 170.941 283.406ZM181.24 288.159C180.505 288.159 179.87 287.997 179.336 287.672C178.806 287.344 178.397 286.886 178.108 286.3C177.823 285.71 177.681 285.024 177.681 284.241C177.681 283.459 177.823 282.77 178.108 282.173C178.397 281.573 178.798 281.106 179.311 280.771C179.828 280.433 180.432 280.264 181.121 280.264C181.519 280.264 181.912 280.33 182.299 280.463C182.687 280.596 183.04 280.811 183.358 281.109C183.676 281.404 183.93 281.795 184.119 282.283C184.308 282.77 184.402 283.37 184.402 284.082V284.58H178.516V283.565H183.209C183.209 283.134 183.123 282.75 182.951 282.412C182.782 282.074 182.54 281.807 182.225 281.612C181.913 281.416 181.545 281.318 181.121 281.318C180.654 281.318 180.249 281.434 179.908 281.666C179.57 281.895 179.31 282.193 179.127 282.561C178.945 282.929 178.854 283.323 178.854 283.744V284.42C178.854 284.997 178.953 285.486 179.152 285.887C179.355 286.285 179.635 286.588 179.993 286.797C180.35 287.002 180.766 287.105 181.24 287.105C181.549 287.105 181.827 287.062 182.076 286.976C182.328 286.886 182.545 286.754 182.727 286.578C182.909 286.399 183.05 286.177 183.15 285.912L184.283 286.23C184.164 286.615 183.963 286.953 183.681 287.244C183.4 287.533 183.052 287.758 182.637 287.92C182.223 288.08 181.757 288.159 181.24 288.159ZM186.187 288V280.364H187.321V281.517H187.4C187.539 281.139 187.791 280.833 188.156 280.597C188.52 280.362 188.931 280.244 189.389 280.244C189.475 280.244 189.583 280.246 189.712 280.249C189.841 280.253 189.939 280.258 190.005 280.264V281.457C189.966 281.447 189.874 281.433 189.732 281.413C189.593 281.389 189.445 281.378 189.289 281.378C188.918 281.378 188.587 281.456 188.295 281.612C188.007 281.764 187.778 281.976 187.609 282.248C187.443 282.516 187.36 282.823 187.36 283.168V288H186.187ZM201.061 280.364C201.001 279.86 200.759 279.469 200.335 279.19C199.911 278.912 199.39 278.773 198.774 278.773C198.323 278.773 197.929 278.846 197.591 278.991C197.256 279.137 196.994 279.338 196.805 279.593C196.62 279.848 196.527 280.138 196.527 280.463C196.527 280.735 196.591 280.969 196.721 281.164C196.853 281.356 197.022 281.517 197.228 281.646C197.433 281.772 197.649 281.877 197.874 281.96C198.099 282.039 198.307 282.104 198.496 282.153L199.53 282.432C199.795 282.501 200.09 282.598 200.415 282.72C200.743 282.843 201.056 283.01 201.354 283.222C201.656 283.431 201.904 283.7 202.1 284.028C202.296 284.356 202.393 284.759 202.393 285.236C202.393 285.786 202.249 286.283 201.961 286.727C201.676 287.171 201.258 287.524 200.708 287.786C200.161 288.048 199.497 288.179 198.714 288.179C197.985 288.179 197.354 288.061 196.82 287.826C196.29 287.591 195.872 287.263 195.567 286.842C195.266 286.421 195.095 285.932 195.055 285.375H196.328C196.361 285.759 196.49 286.078 196.716 286.33C196.944 286.578 197.233 286.764 197.581 286.886C197.932 287.006 198.31 287.065 198.714 287.065C199.185 287.065 199.608 286.989 199.982 286.837C200.357 286.681 200.653 286.465 200.872 286.19C201.091 285.912 201.2 285.587 201.2 285.216C201.2 284.878 201.106 284.603 200.917 284.391C200.728 284.179 200.479 284.006 200.171 283.874C199.863 283.741 199.53 283.625 199.172 283.526L197.919 283.168C197.123 282.939 196.494 282.612 196.03 282.188C195.566 281.764 195.334 281.209 195.334 280.523C195.334 279.953 195.488 279.455 195.796 279.031C196.108 278.604 196.525 278.272 197.049 278.037C197.576 277.798 198.164 277.679 198.814 277.679C199.47 277.679 200.053 277.797 200.564 278.032C201.074 278.264 201.479 278.582 201.777 278.987C202.078 279.391 202.238 279.85 202.254 280.364H201.061ZM207.582 280.364V281.358H203.625V280.364H207.582ZM204.778 278.534H205.952V285.812C205.952 286.144 206 286.393 206.096 286.558C206.195 286.721 206.321 286.83 206.474 286.886C206.629 286.939 206.794 286.966 206.966 286.966C207.095 286.966 207.201 286.959 207.284 286.946C207.367 286.929 207.433 286.916 207.483 286.906L207.722 287.96C207.642 287.99 207.531 288.02 207.388 288.05C207.246 288.083 207.065 288.099 206.847 288.099C206.515 288.099 206.19 288.028 205.872 287.886C205.557 287.743 205.295 287.526 205.087 287.234C204.881 286.943 204.778 286.575 204.778 286.131V278.534ZM214.16 284.878V280.364H215.333V288H214.16V286.707H214.08C213.901 287.095 213.623 287.425 213.245 287.697C212.867 287.965 212.39 288.099 211.813 288.099C211.336 288.099 210.912 287.995 210.54 287.786C210.169 287.574 209.878 287.256 209.665 286.832C209.453 286.404 209.347 285.866 209.347 285.216V280.364H210.521V285.136C210.521 285.693 210.676 286.137 210.988 286.469C211.303 286.8 211.704 286.966 212.191 286.966C212.483 286.966 212.779 286.891 213.081 286.742C213.386 286.593 213.641 286.364 213.847 286.056C214.055 285.748 214.16 285.355 214.16 284.878ZM220.366 288.159C219.729 288.159 219.167 287.998 218.68 287.677C218.193 287.352 217.812 286.895 217.537 286.305C217.262 285.711 217.124 285.01 217.124 284.202C217.124 283.4 217.262 282.704 217.537 282.114C217.812 281.524 218.195 281.068 218.685 280.746C219.176 280.425 219.742 280.264 220.385 280.264C220.883 280.264 221.275 280.347 221.564 280.513C221.855 280.675 222.077 280.861 222.23 281.07C222.386 281.275 222.507 281.444 222.593 281.577H222.692V277.818H223.866V288H222.732V286.827H222.593C222.507 286.966 222.384 287.142 222.225 287.354C222.066 287.562 221.839 287.75 221.544 287.915C221.249 288.078 220.856 288.159 220.366 288.159ZM220.525 287.105C220.995 287.105 221.393 286.982 221.718 286.737C222.043 286.489 222.29 286.146 222.459 285.708C222.628 285.267 222.712 284.759 222.712 284.182C222.712 283.612 222.629 283.113 222.464 282.685C222.298 282.254 222.053 281.92 221.728 281.681C221.403 281.439 221.002 281.318 220.525 281.318C220.028 281.318 219.613 281.446 219.282 281.701C218.954 281.953 218.707 282.296 218.541 282.73C218.379 283.161 218.297 283.645 218.297 284.182C218.297 284.725 218.38 285.219 218.546 285.663C218.715 286.104 218.964 286.455 219.292 286.717C219.623 286.976 220.034 287.105 220.525 287.105ZM226.177 288V280.364H227.351V288H226.177ZM226.774 279.091C226.545 279.091 226.348 279.013 226.182 278.857C226.02 278.701 225.939 278.514 225.939 278.295C225.939 278.077 226.02 277.889 226.182 277.734C226.348 277.578 226.545 277.5 226.774 277.5C227.003 277.5 227.198 277.578 227.361 277.734C227.526 277.889 227.609 278.077 227.609 278.295C227.609 278.514 227.526 278.701 227.361 278.857C227.198 279.013 227.003 279.091 226.774 279.091ZM232.701 288.159C231.966 288.159 231.331 287.997 230.797 287.672C230.267 287.344 229.858 286.886 229.569 286.3C229.284 285.71 229.142 285.024 229.142 284.241C229.142 283.459 229.284 282.77 229.569 282.173C229.858 281.573 230.259 281.106 230.772 280.771C231.289 280.433 231.893 280.264 232.582 280.264C232.98 280.264 233.373 280.33 233.76 280.463C234.148 280.596 234.501 280.811 234.819 281.109C235.137 281.404 235.391 281.795 235.58 282.283C235.769 282.77 235.863 283.37 235.863 284.082V284.58H229.977V283.565H234.67C234.67 283.134 234.584 282.75 234.412 282.412C234.243 282.074 234.001 281.807 233.686 281.612C233.374 281.416 233.006 281.318 232.582 281.318C232.115 281.318 231.71 281.434 231.369 281.666C231.031 281.895 230.771 282.193 230.588 282.561C230.406 282.929 230.315 283.323 230.315 283.744V284.42C230.315 284.997 230.414 285.486 230.613 285.887C230.815 286.285 231.096 286.588 231.453 286.797C231.811 287.002 232.227 287.105 232.701 287.105C233.01 287.105 233.288 287.062 233.537 286.976C233.788 286.886 234.006 286.754 234.188 286.578C234.37 286.399 234.511 286.177 234.61 285.912L235.744 286.23C235.625 286.615 235.424 286.953 235.142 287.244C234.861 287.533 234.513 287.758 234.098 287.92C233.684 288.08 233.218 288.159 232.701 288.159ZM243.057 282.074L242.003 282.372C241.937 282.196 241.839 282.026 241.71 281.86C241.584 281.691 241.412 281.552 241.193 281.442C240.974 281.333 240.694 281.278 240.353 281.278C239.885 281.278 239.496 281.386 239.184 281.602C238.876 281.814 238.722 282.084 238.722 282.412C238.722 282.704 238.828 282.934 239.04 283.103C239.252 283.272 239.584 283.413 240.034 283.526L241.168 283.804C241.851 283.97 242.359 284.223 242.694 284.565C243.029 284.903 243.196 285.339 243.196 285.872C243.196 286.31 243.07 286.701 242.819 287.045C242.57 287.39 242.222 287.662 241.775 287.861C241.327 288.06 240.807 288.159 240.213 288.159C239.435 288.159 238.79 287.99 238.279 287.652C237.769 287.314 237.446 286.82 237.31 286.17L238.424 285.892C238.53 286.303 238.73 286.611 239.025 286.817C239.324 287.022 239.713 287.125 240.194 287.125C240.74 287.125 241.175 287.009 241.496 286.777C241.821 286.542 241.983 286.26 241.983 285.932C241.983 285.667 241.891 285.445 241.705 285.266C241.519 285.083 241.234 284.947 240.85 284.858L239.577 284.56C238.878 284.394 238.364 284.137 238.036 283.789C237.711 283.438 237.549 282.999 237.549 282.472C237.549 282.041 237.67 281.66 237.912 281.328C238.157 280.997 238.49 280.737 238.911 280.548C239.335 280.359 239.816 280.264 240.353 280.264C241.108 280.264 241.702 280.43 242.132 280.761C242.567 281.093 242.875 281.53 243.057 282.074ZM245.818 288.08C245.572 288.08 245.362 287.992 245.186 287.816C245.011 287.64 244.923 287.43 244.923 287.185C244.923 286.939 245.011 286.729 245.186 286.553C245.362 286.378 245.572 286.29 245.818 286.29C246.063 286.29 246.273 286.378 246.449 286.553C246.625 286.729 246.713 286.939 246.713 287.185C246.713 287.347 246.671 287.496 246.588 287.632C246.509 287.768 246.401 287.877 246.265 287.96C246.133 288.04 245.983 288.08 245.818 288.08ZM245.818 282.412C245.572 282.412 245.362 282.324 245.186 282.148C245.011 281.973 244.923 281.762 244.923 281.517C244.923 281.272 245.011 281.061 245.186 280.886C245.362 280.71 245.572 280.622 245.818 280.622C246.063 280.622 246.273 280.71 246.449 280.886C246.625 281.061 246.713 281.272 246.713 281.517C246.713 281.679 246.671 281.829 246.588 281.964C246.509 282.1 246.401 282.21 246.265 282.293C246.133 282.372 245.983 282.412 245.818 282.412ZM255.917 288.139C255.334 288.139 254.809 288.023 254.341 287.791C253.874 287.559 253.5 287.241 253.218 286.837C252.936 286.432 252.782 285.972 252.756 285.455H253.949C253.995 285.915 254.204 286.296 254.575 286.598C254.95 286.896 255.397 287.045 255.917 287.045C256.335 287.045 256.706 286.948 257.031 286.752C257.359 286.557 257.616 286.288 257.802 285.947C257.991 285.602 258.085 285.213 258.085 284.778C258.085 284.334 257.987 283.938 257.792 283.59C257.599 283.239 257.334 282.962 256.996 282.76C256.658 282.558 256.272 282.455 255.838 282.452C255.526 282.448 255.206 282.496 254.878 282.596C254.55 282.692 254.28 282.816 254.068 282.969L252.915 282.83L253.531 277.818H258.821V278.912H254.565L254.207 281.915H254.267C254.476 281.749 254.738 281.612 255.052 281.502C255.367 281.393 255.695 281.338 256.037 281.338C256.66 281.338 257.215 281.487 257.702 281.786C258.193 282.08 258.577 282.485 258.856 282.999C259.137 283.512 259.278 284.099 259.278 284.759C259.278 285.408 259.132 285.988 258.841 286.499C258.552 287.006 258.155 287.407 257.648 287.702C257.14 287.993 256.564 288.139 255.917 288.139Z" fill="black"/>
<path d="M60.6761 245.912V244.818H68.3125V245.912H65.1108V255H63.8778V245.912H60.6761ZM72.0511 255.159C71.3617 255.159 70.7569 254.995 70.2365 254.667C69.7195 254.339 69.3151 253.88 69.0234 253.29C68.7351 252.7 68.5909 252.01 68.5909 251.222C68.5909 250.426 68.7351 249.732 69.0234 249.138C69.3151 248.545 69.7195 248.084 70.2365 247.756C70.7569 247.428 71.3617 247.264 72.0511 247.264C72.7405 247.264 73.3438 247.428 73.8608 247.756C74.3812 248.084 74.7855 248.545 75.0739 249.138C75.3655 249.732 75.5114 250.426 75.5114 251.222C75.5114 252.01 75.3655 252.7 75.0739 253.29C74.7855 253.88 74.3812 254.339 73.8608 254.667C73.3438 254.995 72.7405 255.159 72.0511 255.159ZM72.0511 254.105C72.5748 254.105 73.0057 253.971 73.3438 253.702C73.6818 253.434 73.9321 253.081 74.0945 252.643C74.2569 252.206 74.3381 251.732 74.3381 251.222C74.3381 250.711 74.2569 250.235 74.0945 249.795C73.9321 249.354 73.6818 248.998 73.3438 248.726C73.0057 248.454 72.5748 248.318 72.0511 248.318C71.5275 248.318 71.0966 248.454 70.7585 248.726C70.4205 248.998 70.1702 249.354 70.0078 249.795C69.8454 250.235 69.7642 250.711 69.7642 251.222C69.7642 251.732 69.8454 252.206 70.0078 252.643C70.1702 253.081 70.4205 253.434 70.7585 253.702C71.0966 253.971 71.5275 254.105 72.0511 254.105ZM80.6234 247.364V248.358H76.666V247.364H80.6234ZM77.8194 245.534H78.9927V252.812C78.9927 253.144 79.0408 253.392 79.1369 253.558C79.2363 253.721 79.3623 253.83 79.5147 253.886C79.6705 253.939 79.8346 253.966 80.0069 253.966C80.1362 253.966 80.2422 253.959 80.3251 253.946C80.408 253.929 80.4743 253.916 80.524 253.906L80.7626 254.96C80.6831 254.99 80.572 255.02 80.4295 255.05C80.287 255.083 80.1064 255.099 79.8876 255.099C79.5562 255.099 79.2314 255.028 78.9132 254.886C78.5983 254.743 78.3365 254.526 78.1277 254.234C77.9222 253.943 77.8194 253.575 77.8194 253.131V245.534ZM84.6355 255.179C84.1516 255.179 83.7124 255.088 83.318 254.905C82.9236 254.72 82.6104 254.453 82.3784 254.105C82.1464 253.754 82.0304 253.329 82.0304 252.832C82.0304 252.395 82.1165 252.04 82.2889 251.768C82.4612 251.493 82.6916 251.278 82.9799 251.122C83.2683 250.966 83.5865 250.85 83.9345 250.774C84.2858 250.695 84.6388 250.632 84.9934 250.585C85.4574 250.526 85.8336 250.481 86.122 250.451C86.4136 250.418 86.6258 250.363 86.7583 250.287C86.8942 250.211 86.9622 250.078 86.9622 249.889V249.849C86.9622 249.359 86.8279 248.978 86.5595 248.706C86.2943 248.434 85.8916 248.298 85.3514 248.298C84.7913 248.298 84.3521 248.421 84.0339 248.666C83.7157 248.911 83.492 249.173 83.3627 249.452L82.2491 249.054C82.448 248.59 82.7131 248.229 83.0446 247.97C83.3793 247.708 83.7439 247.526 84.1383 247.423C84.536 247.317 84.9271 247.264 85.3116 247.264C85.5569 247.264 85.8386 247.294 86.1568 247.354C86.4783 247.41 86.7882 247.528 87.0865 247.707C87.3881 247.886 87.6383 248.156 87.8372 248.517C88.036 248.878 88.1355 249.362 88.1355 249.969V255H86.9622V253.966H86.9025C86.823 254.132 86.6904 254.309 86.5048 254.498C86.3192 254.687 86.0723 254.847 85.764 254.98C85.4558 255.113 85.0796 255.179 84.6355 255.179ZM84.8145 254.125C85.2785 254.125 85.6696 254.034 85.9877 253.852C86.3092 253.669 86.5512 253.434 86.7136 253.146C86.8793 252.857 86.9622 252.554 86.9622 252.236V251.162C86.9125 251.222 86.8031 251.276 86.6341 251.326C86.4683 251.372 86.2761 251.414 86.0574 251.45C85.8419 251.483 85.6315 251.513 85.426 251.54C85.2238 251.563 85.0597 251.583 84.9338 251.599C84.6288 251.639 84.3438 251.704 84.0787 251.793C83.8168 251.879 83.6047 252.01 83.4423 252.186C83.2832 252.358 83.2037 252.594 83.2037 252.892C83.2037 253.3 83.3545 253.608 83.6561 253.817C83.961 254.022 84.3471 254.125 84.8145 254.125ZM91.4503 244.818V255H90.277V244.818H91.4503ZM98.9288 244.818V255H97.6958V244.818H98.9288ZM102.415 250.406V255H101.242V247.364H102.375V248.557H102.475C102.654 248.169 102.926 247.857 103.29 247.622C103.655 247.383 104.125 247.264 104.702 247.264C105.219 247.264 105.672 247.37 106.059 247.582C106.447 247.791 106.749 248.109 106.964 248.537C107.18 248.961 107.287 249.498 107.287 250.148V255H106.114V250.227C106.114 249.627 105.958 249.16 105.647 248.825C105.335 248.487 104.908 248.318 104.364 248.318C103.989 248.318 103.655 248.399 103.36 248.562C103.068 248.724 102.838 248.961 102.669 249.273C102.5 249.584 102.415 249.962 102.415 250.406ZM112.752 247.364V248.358H108.795V247.364H112.752ZM109.948 245.534H111.122V252.812C111.122 253.144 111.17 253.392 111.266 253.558C111.365 253.721 111.491 253.83 111.644 253.886C111.799 253.939 111.963 253.966 112.136 253.966C112.265 253.966 112.371 253.959 112.454 253.946C112.537 253.929 112.603 253.916 112.653 253.906L112.892 254.96C112.812 254.99 112.701 255.02 112.558 255.05C112.416 255.083 112.235 255.099 112.017 255.099C111.685 255.099 111.36 255.028 111.042 254.886C110.727 254.743 110.465 254.526 110.257 254.234C110.051 253.943 109.948 253.575 109.948 253.131V245.534ZM117.637 255.159C116.901 255.159 116.266 254.997 115.733 254.672C115.202 254.344 114.793 253.886 114.505 253.3C114.22 252.71 114.077 252.024 114.077 251.241C114.077 250.459 114.22 249.77 114.505 249.173C114.793 248.573 115.194 248.106 115.708 247.771C116.225 247.433 116.828 247.264 117.518 247.264C117.915 247.264 118.308 247.33 118.696 247.463C119.084 247.596 119.437 247.811 119.755 248.109C120.073 248.404 120.327 248.795 120.515 249.283C120.704 249.77 120.799 250.37 120.799 251.082V251.579H114.912V250.565H119.606C119.606 250.134 119.519 249.75 119.347 249.412C119.178 249.074 118.936 248.807 118.621 248.611C118.31 248.416 117.942 248.318 117.518 248.318C117.05 248.318 116.646 248.434 116.305 248.666C115.966 248.895 115.706 249.193 115.524 249.561C115.342 249.929 115.251 250.323 115.251 250.744V251.42C115.251 251.997 115.35 252.486 115.549 252.887C115.751 253.285 116.031 253.588 116.389 253.797C116.747 254.002 117.163 254.105 117.637 254.105C117.945 254.105 118.224 254.062 118.472 253.976C118.724 253.886 118.941 253.754 119.123 253.578C119.306 253.399 119.447 253.177 119.546 252.912L120.68 253.23C120.56 253.615 120.36 253.953 120.078 254.244C119.796 254.533 119.448 254.758 119.034 254.92C118.62 255.079 118.154 255.159 117.637 255.159ZM122.584 255V247.364H123.717V248.517H123.797C123.936 248.139 124.188 247.833 124.552 247.597C124.917 247.362 125.328 247.244 125.785 247.244C125.872 247.244 125.979 247.246 126.108 247.249C126.238 247.253 126.336 247.258 126.402 247.264V248.457C126.362 248.447 126.271 248.432 126.128 248.413C125.989 248.389 125.842 248.378 125.686 248.378C125.315 248.378 124.983 248.456 124.692 248.611C124.403 248.764 124.175 248.976 124.006 249.248C123.84 249.516 123.757 249.823 123.757 250.168V255H122.584ZM128.966 250.406V255H127.793V247.364H128.926V248.557H129.026C129.205 248.169 129.476 247.857 129.841 247.622C130.205 247.383 130.676 247.264 131.253 247.264C131.77 247.264 132.222 247.37 132.61 247.582C132.998 247.791 133.299 248.109 133.515 248.537C133.73 248.961 133.838 249.498 133.838 250.148V255H132.665V250.227C132.665 249.627 132.509 249.16 132.197 248.825C131.886 248.487 131.458 248.318 130.915 248.318C130.54 248.318 130.205 248.399 129.911 248.562C129.619 248.724 129.388 248.961 129.219 249.273C129.05 249.584 128.966 249.962 128.966 250.406ZM141.391 249.074L140.337 249.372C140.271 249.196 140.173 249.026 140.044 248.86C139.918 248.691 139.746 248.552 139.527 248.442C139.308 248.333 139.028 248.278 138.687 248.278C138.219 248.278 137.83 248.386 137.518 248.602C137.21 248.814 137.056 249.084 137.056 249.412C137.056 249.704 137.162 249.934 137.374 250.103C137.586 250.272 137.918 250.413 138.368 250.526L139.502 250.804C140.185 250.97 140.693 251.223 141.028 251.565C141.363 251.903 141.53 252.338 141.53 252.872C141.53 253.31 141.404 253.701 141.153 254.045C140.904 254.39 140.556 254.662 140.108 254.861C139.661 255.06 139.141 255.159 138.547 255.159C137.769 255.159 137.124 254.99 136.613 254.652C136.103 254.314 135.78 253.82 135.644 253.17L136.758 252.892C136.864 253.303 137.064 253.611 137.359 253.817C137.657 254.022 138.047 254.125 138.528 254.125C139.074 254.125 139.509 254.009 139.83 253.777C140.155 253.542 140.317 253.26 140.317 252.932C140.317 252.667 140.224 252.445 140.039 252.266C139.853 252.083 139.568 251.947 139.184 251.858L137.911 251.56C137.212 251.394 136.698 251.137 136.37 250.789C136.045 250.438 135.883 249.999 135.883 249.472C135.883 249.041 136.004 248.66 136.246 248.328C136.491 247.997 136.824 247.736 137.245 247.548C137.669 247.359 138.15 247.264 138.687 247.264C139.442 247.264 140.036 247.43 140.466 247.761C140.901 248.093 141.209 248.53 141.391 249.074ZM144.47 250.406V255H143.297V244.818H144.47V248.557H144.569C144.748 248.162 145.017 247.849 145.375 247.617C145.736 247.382 146.217 247.264 146.816 247.264C147.337 247.264 147.792 247.369 148.184 247.577C148.575 247.783 148.878 248.099 149.093 248.527C149.312 248.951 149.422 249.491 149.422 250.148V255H148.248V250.227C148.248 249.621 148.091 249.152 147.776 248.82C147.464 248.485 147.032 248.318 146.478 248.318C146.094 248.318 145.749 248.399 145.444 248.562C145.143 248.724 144.904 248.961 144.728 249.273C144.556 249.584 144.47 249.962 144.47 250.406ZM151.568 255V247.364H152.741V255H151.568ZM152.165 246.091C151.936 246.091 151.739 246.013 151.573 245.857C151.411 245.701 151.329 245.514 151.329 245.295C151.329 245.077 151.411 244.889 151.573 244.734C151.739 244.578 151.936 244.5 152.165 244.5C152.393 244.5 152.589 244.578 152.751 244.734C152.917 244.889 153 245.077 153 245.295C153 245.514 152.917 245.701 152.751 245.857C152.589 246.013 152.393 246.091 152.165 246.091ZM154.89 257.864V247.364H156.024V248.577H156.163C156.249 248.444 156.368 248.275 156.521 248.07C156.677 247.861 156.899 247.675 157.187 247.513C157.479 247.347 157.873 247.264 158.37 247.264C159.013 247.264 159.58 247.425 160.071 247.746C160.561 248.068 160.944 248.524 161.219 249.114C161.494 249.704 161.632 250.4 161.632 251.202C161.632 252.01 161.494 252.711 161.219 253.305C160.944 253.895 160.563 254.352 160.076 254.677C159.588 254.998 159.027 255.159 158.39 255.159C157.9 255.159 157.507 255.078 157.212 254.915C156.917 254.75 156.69 254.562 156.531 254.354C156.372 254.142 156.249 253.966 156.163 253.827H156.064V257.864H154.89ZM156.044 251.182C156.044 251.758 156.128 252.267 156.297 252.708C156.466 253.146 156.713 253.489 157.038 253.737C157.363 253.982 157.761 254.105 158.231 254.105C158.722 254.105 159.131 253.976 159.459 253.717C159.791 253.455 160.039 253.104 160.205 252.663C160.374 252.219 160.458 251.725 160.458 251.182C160.458 250.645 160.376 250.161 160.21 249.73C160.047 249.296 159.801 248.953 159.469 248.701C159.141 248.446 158.728 248.318 158.231 248.318C157.754 248.318 157.353 248.439 157.028 248.681C156.703 248.92 156.458 249.254 156.292 249.685C156.127 250.113 156.044 250.612 156.044 251.182ZM176.109 249.909C176.109 250.983 175.915 251.911 175.527 252.693C175.14 253.475 174.608 254.079 173.931 254.503C173.255 254.927 172.483 255.139 171.615 255.139C170.746 255.139 169.974 254.927 169.298 254.503C168.622 254.079 168.09 253.475 167.702 252.693C167.314 251.911 167.12 250.983 167.12 249.909C167.12 248.835 167.314 247.907 167.702 247.125C168.09 246.343 168.622 245.74 169.298 245.315C169.974 244.891 170.746 244.679 171.615 244.679C172.483 244.679 173.255 244.891 173.931 245.315C174.608 245.74 175.14 246.343 175.527 247.125C175.915 247.907 176.109 248.835 176.109 249.909ZM174.916 249.909C174.916 249.027 174.768 248.283 174.473 247.677C174.182 247.07 173.786 246.611 173.285 246.3C172.788 245.988 172.231 245.832 171.615 245.832C170.998 245.832 170.44 245.988 169.939 246.3C169.442 246.611 169.046 247.07 168.751 247.677C168.459 248.283 168.314 249.027 168.314 249.909C168.314 250.791 168.459 251.535 168.751 252.141C169.046 252.748 169.442 253.207 169.939 253.518C170.44 253.83 170.998 253.986 171.615 253.986C172.231 253.986 172.788 253.83 173.285 253.518C173.786 253.207 174.182 252.748 174.473 252.141C174.768 251.535 174.916 250.791 174.916 249.909ZM181.424 247.364V248.358H177.307V247.364H181.424ZM178.54 255V246.31C178.54 245.872 178.643 245.508 178.848 245.216C179.054 244.924 179.321 244.705 179.649 244.56C179.977 244.414 180.323 244.341 180.688 244.341C180.976 244.341 181.212 244.364 181.394 244.41C181.576 244.457 181.712 244.5 181.801 244.54L181.463 245.554C181.404 245.534 181.321 245.509 181.215 245.479C181.112 245.45 180.976 245.435 180.807 245.435C180.419 245.435 180.139 245.532 179.967 245.728C179.798 245.923 179.713 246.21 179.713 246.588V255H178.54ZM186.469 247.364V248.358H182.352V247.364H186.469ZM183.585 255V246.31C183.585 245.872 183.688 245.508 183.893 245.216C184.099 244.924 184.366 244.705 184.694 244.56C185.022 244.414 185.368 244.341 185.733 244.341C186.021 244.341 186.256 244.364 186.439 244.41C186.621 244.457 186.757 244.5 186.846 244.54L186.508 245.554C186.449 245.534 186.366 245.509 186.26 245.479C186.157 245.45 186.021 245.435 185.852 245.435C185.464 245.435 185.184 245.532 185.012 245.728C184.843 245.923 184.758 246.21 184.758 246.588V255H183.585ZM191 255.159C190.264 255.159 189.63 254.997 189.096 254.672C188.566 254.344 188.156 253.886 187.868 253.3C187.583 252.71 187.441 252.024 187.441 251.241C187.441 250.459 187.583 249.77 187.868 249.173C188.156 248.573 188.557 248.106 189.071 247.771C189.588 247.433 190.191 247.264 190.881 247.264C191.279 247.264 191.671 247.33 192.059 247.463C192.447 247.596 192.8 247.811 193.118 248.109C193.436 248.404 193.69 248.795 193.879 249.283C194.068 249.77 194.162 250.37 194.162 251.082V251.579H188.276V250.565H192.969C192.969 250.134 192.883 249.75 192.71 249.412C192.541 249.074 192.299 248.807 191.985 248.611C191.673 248.416 191.305 248.318 190.881 248.318C190.414 248.318 190.009 248.434 189.668 248.666C189.33 248.895 189.07 249.193 188.887 249.561C188.705 249.929 188.614 250.323 188.614 250.744V251.42C188.614 251.997 188.713 252.486 188.912 252.887C189.114 253.285 189.394 253.588 189.752 253.797C190.11 254.002 190.526 254.105 191 254.105C191.308 254.105 191.587 254.062 191.835 253.976C192.087 253.886 192.304 253.754 192.487 253.578C192.669 253.399 192.81 253.177 192.909 252.912L194.043 253.23C193.923 253.615 193.723 253.953 193.441 254.244C193.16 254.533 192.811 254.758 192.397 254.92C191.983 255.079 191.517 255.159 191 255.159ZM195.947 255V247.364H197.08V248.517H197.16C197.299 248.139 197.551 247.833 197.916 247.597C198.28 247.362 198.691 247.244 199.149 247.244C199.235 247.244 199.343 247.246 199.472 247.249C199.601 247.253 199.699 247.258 199.765 247.264V248.457C199.725 248.447 199.634 248.432 199.492 248.413C199.352 248.389 199.205 248.378 199.049 248.378C198.678 248.378 198.347 248.456 198.055 248.611C197.767 248.764 197.538 248.976 197.369 249.248C197.203 249.516 197.12 249.823 197.12 250.168V255H195.947ZM206.565 249.074L205.511 249.372C205.445 249.196 205.347 249.026 205.218 248.86C205.092 248.691 204.919 248.552 204.701 248.442C204.482 248.333 204.202 248.278 203.86 248.278C203.393 248.278 203.004 248.386 202.692 248.602C202.384 248.814 202.23 249.084 202.23 249.412C202.23 249.704 202.336 249.934 202.548 250.103C202.76 250.272 203.092 250.413 203.542 250.526L204.676 250.804C205.359 250.97 205.867 251.223 206.202 251.565C206.537 251.903 206.704 252.338 206.704 252.872C206.704 253.31 206.578 253.701 206.326 254.045C206.078 254.39 205.73 254.662 205.282 254.861C204.835 255.06 204.315 255.159 203.721 255.159C202.942 255.159 202.298 254.99 201.787 254.652C201.277 254.314 200.954 253.82 200.818 253.17L201.931 252.892C202.038 253.303 202.238 253.611 202.533 253.817C202.831 254.022 203.221 254.125 203.701 254.125C204.248 254.125 204.682 254.009 205.004 253.777C205.329 253.542 205.491 253.26 205.491 252.932C205.491 252.667 205.398 252.445 205.213 252.266C205.027 252.083 204.742 251.947 204.358 251.858L203.085 251.56C202.386 251.394 201.872 251.137 201.544 250.789C201.219 250.438 201.056 249.999 201.056 249.472C201.056 249.041 201.177 248.66 201.419 248.328C201.665 247.997 201.998 247.736 202.419 247.548C202.843 247.359 203.324 247.264 203.86 247.264C204.616 247.264 205.209 247.43 205.64 247.761C206.074 248.093 206.383 248.53 206.565 249.074ZM209.325 255.079C209.08 255.079 208.87 254.992 208.694 254.816C208.518 254.64 208.431 254.43 208.431 254.185C208.431 253.939 208.518 253.729 208.694 253.553C208.87 253.378 209.08 253.29 209.325 253.29C209.571 253.29 209.781 253.378 209.957 253.553C210.133 253.729 210.22 253.939 210.22 254.185C210.22 254.347 210.179 254.496 210.096 254.632C210.017 254.768 209.909 254.877 209.773 254.96C209.64 255.04 209.491 255.079 209.325 255.079ZM209.325 249.412C209.08 249.412 208.87 249.324 208.694 249.148C208.518 248.973 208.431 248.762 208.431 248.517C208.431 248.272 208.518 248.061 208.694 247.886C208.87 247.71 209.08 247.622 209.325 247.622C209.571 247.622 209.781 247.71 209.957 247.886C210.133 248.061 210.22 248.272 210.22 248.517C210.22 248.679 210.179 248.829 210.096 248.964C210.017 249.1 209.909 249.21 209.773 249.293C209.64 249.372 209.491 249.412 209.325 249.412ZM219.425 255.139C218.842 255.139 218.317 255.023 217.849 254.791C217.382 254.559 217.007 254.241 216.726 253.837C216.444 253.432 216.29 252.972 216.263 252.454H217.456C217.503 252.915 217.712 253.296 218.083 253.598C218.457 253.896 218.905 254.045 219.425 254.045C219.843 254.045 220.214 253.948 220.539 253.752C220.867 253.557 221.124 253.288 221.309 252.947C221.498 252.602 221.593 252.213 221.593 251.778C221.593 251.334 221.495 250.938 221.3 250.59C221.107 250.239 220.842 249.962 220.504 249.76C220.166 249.558 219.78 249.455 219.346 249.452C219.034 249.448 218.714 249.496 218.386 249.596C218.058 249.692 217.788 249.816 217.576 249.969L216.422 249.829L217.039 244.818H222.329V245.912H218.073L217.715 248.915H217.775C217.983 248.749 218.245 248.611 218.56 248.502C218.875 248.393 219.203 248.338 219.545 248.338C220.168 248.338 220.723 248.487 221.21 248.785C221.701 249.08 222.085 249.485 222.363 249.999C222.645 250.512 222.786 251.099 222.786 251.758C222.786 252.408 222.64 252.988 222.349 253.499C222.06 254.006 221.662 254.407 221.155 254.702C220.648 254.993 220.072 255.139 219.425 255.139ZM228.002 244.679C228.42 244.682 228.838 244.762 229.255 244.918C229.673 245.073 230.054 245.332 230.399 245.693C230.743 246.051 231.02 246.54 231.229 247.16C231.438 247.78 231.542 248.557 231.542 249.491C231.542 250.396 231.456 251.2 231.284 251.903C231.115 252.602 230.869 253.192 230.548 253.673C230.23 254.153 229.842 254.518 229.385 254.766C228.931 255.015 228.417 255.139 227.843 255.139C227.273 255.139 226.765 255.026 226.317 254.801C225.873 254.572 225.508 254.256 225.223 253.852C224.942 253.444 224.761 252.972 224.681 252.435H225.895C226.004 252.902 226.221 253.288 226.546 253.593C226.874 253.895 227.306 254.045 227.843 254.045C228.629 254.045 229.249 253.702 229.703 253.016C230.16 252.33 230.389 251.361 230.389 250.108H230.309C230.124 250.386 229.903 250.627 229.648 250.829C229.393 251.031 229.109 251.187 228.798 251.296C228.486 251.405 228.155 251.46 227.804 251.46C227.22 251.46 226.685 251.316 226.198 251.028C225.714 250.736 225.326 250.337 225.034 249.829C224.746 249.319 224.602 248.736 224.602 248.079C224.602 247.456 224.741 246.886 225.02 246.369C225.301 245.849 225.696 245.435 226.203 245.126C226.713 244.818 227.313 244.669 228.002 244.679ZM228.002 245.773C227.585 245.773 227.209 245.877 226.874 246.086C226.542 246.291 226.279 246.57 226.083 246.921C225.891 247.269 225.795 247.655 225.795 248.079C225.795 248.504 225.888 248.89 226.074 249.238C226.262 249.583 226.519 249.858 226.844 250.063C227.172 250.265 227.545 250.366 227.963 250.366C228.278 250.366 228.571 250.305 228.843 250.182C229.114 250.057 229.351 249.886 229.554 249.67C229.759 249.452 229.92 249.205 230.036 248.93C230.152 248.651 230.21 248.361 230.21 248.06C230.21 247.662 230.114 247.289 229.922 246.941C229.733 246.593 229.471 246.311 229.136 246.096C228.805 245.88 228.427 245.773 228.002 245.773Z" fill="black"/>
<path d="M41 258.625C35.6939 258.625 31.375 254.307 31.375 249C31.375 243.692 35.6939 239.375 41 239.375C46.3061 239.375 50.625 243.692 50.625 249C50.625 254.307 46.3061 258.625 41 258.625ZM41 240.75C36.4501 240.75 32.75 244.45 32.75 249C32.75 253.55 36.4501 257.25 41 257.25C45.5499 257.25 49.25 253.55 49.25 249C49.25 244.45 45.5499 240.75 41 240.75Z" fill="#1461FF"/>
<path d="M41 251.98C42.6456 251.98 43.9796 250.646 43.9796 249C43.9796 247.354 42.6456 246.02 41 246.02C39.3544 246.02 38.0204 247.354 38.0204 249C38.0204 250.646 39.3544 251.98 41 251.98Z" fill="#0070C0"/>
<path d="M61.6761 212.912V211.818H69.3125V212.912H66.1108V222H64.8778V212.912H61.6761ZM73.0511 222.159C72.3617 222.159 71.7569 221.995 71.2365 221.667C70.7195 221.339 70.3151 220.88 70.0234 220.29C69.7351 219.7 69.5909 219.01 69.5909 218.222C69.5909 217.426 69.7351 216.732 70.0234 216.138C70.3151 215.545 70.7195 215.085 71.2365 214.756C71.7569 214.428 72.3617 214.264 73.0511 214.264C73.7405 214.264 74.3438 214.428 74.8608 214.756C75.3812 215.085 75.7855 215.545 76.0739 216.138C76.3655 216.732 76.5114 217.426 76.5114 218.222C76.5114 219.01 76.3655 219.7 76.0739 220.29C75.7855 220.88 75.3812 221.339 74.8608 221.667C74.3438 221.995 73.7405 222.159 73.0511 222.159ZM73.0511 221.105C73.5748 221.105 74.0057 220.971 74.3438 220.702C74.6818 220.434 74.9321 220.081 75.0945 219.643C75.2569 219.206 75.3381 218.732 75.3381 218.222C75.3381 217.711 75.2569 217.236 75.0945 216.795C74.9321 216.354 74.6818 215.998 74.3438 215.726C74.0057 215.454 73.5748 215.318 73.0511 215.318C72.5275 215.318 72.0966 215.454 71.7585 215.726C71.4205 215.998 71.1702 216.354 71.0078 216.795C70.8454 217.236 70.7642 217.711 70.7642 218.222C70.7642 218.732 70.8454 219.206 71.0078 219.643C71.1702 220.081 71.4205 220.434 71.7585 220.702C72.0966 220.971 72.5275 221.105 73.0511 221.105ZM81.6234 214.364V215.358H77.666V214.364H81.6234ZM78.8194 212.534H79.9927V219.812C79.9927 220.144 80.0408 220.393 80.1369 220.558C80.2363 220.721 80.3623 220.83 80.5147 220.886C80.6705 220.939 80.8346 220.966 81.0069 220.966C81.1362 220.966 81.2422 220.959 81.3251 220.946C81.408 220.929 81.4743 220.916 81.524 220.906L81.7626 221.96C81.6831 221.99 81.572 222.02 81.4295 222.05C81.287 222.083 81.1064 222.099 80.8876 222.099C80.5562 222.099 80.2314 222.028 79.9132 221.886C79.5983 221.743 79.3365 221.526 79.1277 221.234C78.9222 220.943 78.8194 220.575 78.8194 220.131V212.534ZM85.6355 222.179C85.1516 222.179 84.7124 222.088 84.318 221.906C83.9236 221.72 83.6104 221.453 83.3784 221.105C83.1464 220.754 83.0304 220.33 83.0304 219.832C83.0304 219.395 83.1165 219.04 83.2889 218.768C83.4612 218.493 83.6916 218.278 83.9799 218.122C84.2683 217.966 84.5865 217.85 84.9345 217.774C85.2858 217.695 85.6388 217.632 85.9934 217.585C86.4574 217.526 86.8336 217.481 87.122 217.451C87.4136 217.418 87.6258 217.363 87.7583 217.287C87.8942 217.211 87.9622 217.078 87.9622 216.889V216.849C87.9622 216.359 87.8279 215.978 87.5595 215.706C87.2943 215.434 86.8916 215.298 86.3514 215.298C85.7913 215.298 85.3521 215.421 85.0339 215.666C84.7157 215.911 84.492 216.173 84.3627 216.452L83.2491 216.054C83.448 215.59 83.7131 215.229 84.0446 214.97C84.3793 214.708 84.7439 214.526 85.1383 214.423C85.536 214.317 85.9271 214.264 86.3116 214.264C86.5569 214.264 86.8386 214.294 87.1568 214.354C87.4783 214.41 87.7882 214.528 88.0865 214.707C88.3881 214.886 88.6383 215.156 88.8372 215.517C89.036 215.878 89.1355 216.362 89.1355 216.969V222H87.9622V220.966H87.9025C87.823 221.132 87.6904 221.309 87.5048 221.498C87.3192 221.687 87.0723 221.848 86.764 221.98C86.4558 222.113 86.0796 222.179 85.6355 222.179ZM85.8145 221.125C86.2785 221.125 86.6696 221.034 86.9877 220.852C87.3092 220.669 87.5512 220.434 87.7136 220.146C87.8793 219.857 87.9622 219.554 87.9622 219.236V218.162C87.9125 218.222 87.8031 218.276 87.6341 218.326C87.4683 218.372 87.2761 218.414 87.0574 218.45C86.8419 218.483 86.6315 218.513 86.426 218.54C86.2238 218.563 86.0597 218.583 85.9338 218.599C85.6288 218.639 85.3438 218.704 85.0787 218.793C84.8168 218.879 84.6047 219.01 84.4423 219.186C84.2832 219.358 84.2037 219.594 84.2037 219.892C84.2037 220.3 84.3545 220.608 84.6561 220.817C84.961 221.022 85.3471 221.125 85.8145 221.125ZM92.4503 211.818V222H91.277V211.818H92.4503ZM98.6958 222V211.818H104.801V212.912H99.9288V216.352H104.344V217.446H99.9288V222H98.6958ZM106.356 212.912V211.818H113.992V212.912H110.79V222H109.558V212.912H106.356ZM115.895 222V211.818H122.04V212.912H117.128V216.352H121.722V217.446H117.128V220.906H122.119V222H115.895ZM136.791 216.909C136.791 217.983 136.597 218.911 136.209 219.693C135.821 220.475 135.289 221.079 134.613 221.503C133.937 221.927 133.165 222.139 132.296 222.139C131.428 222.139 130.656 221.927 129.98 221.503C129.303 221.079 128.771 220.475 128.384 219.693C127.996 218.911 127.802 217.983 127.802 216.909C127.802 215.835 127.996 214.907 128.384 214.125C128.771 213.343 129.303 212.74 129.98 212.315C130.656 211.891 131.428 211.679 132.296 211.679C133.165 211.679 133.937 211.891 134.613 212.315C135.289 212.74 135.821 213.343 136.209 214.125C136.597 214.907 136.791 215.835 136.791 216.909ZM135.597 216.909C135.597 216.027 135.45 215.283 135.155 214.677C134.863 214.07 134.467 213.611 133.967 213.3C133.47 212.988 132.913 212.832 132.296 212.832C131.68 212.832 131.121 212.988 130.621 213.3C130.124 213.611 129.728 214.07 129.433 214.677C129.141 215.283 128.995 216.027 128.995 216.909C128.995 217.791 129.141 218.535 129.433 219.141C129.728 219.748 130.124 220.207 130.621 220.518C131.121 220.83 131.68 220.986 132.296 220.986C132.913 220.986 133.47 220.83 133.967 220.518C134.467 220.207 134.863 219.748 135.155 219.141C135.45 218.535 135.597 217.791 135.597 216.909ZM142.105 214.364V215.358H137.989V214.364H142.105ZM139.222 222V213.31C139.222 212.872 139.325 212.508 139.53 212.216C139.735 211.924 140.002 211.705 140.33 211.56C140.659 211.414 141.005 211.341 141.369 211.341C141.658 211.341 141.893 211.364 142.075 211.411C142.258 211.457 142.394 211.5 142.483 211.54L142.145 212.554C142.085 212.534 142.003 212.509 141.896 212.479C141.794 212.45 141.658 212.435 141.489 212.435C141.101 212.435 140.821 212.532 140.649 212.728C140.48 212.924 140.395 213.21 140.395 213.588V222H139.222ZM147.15 214.364V215.358H143.034V214.364H147.15ZM144.267 222V213.31C144.267 212.872 144.369 212.508 144.575 212.216C144.78 211.924 145.047 211.705 145.375 211.56C145.703 211.414 146.05 211.341 146.414 211.341C146.703 211.341 146.938 211.364 147.12 211.411C147.303 211.457 147.439 211.5 147.528 211.54L147.19 212.554C147.13 212.534 147.047 212.509 146.941 212.479C146.839 212.45 146.703 212.435 146.534 212.435C146.146 212.435 145.866 212.532 145.694 212.728C145.525 212.924 145.44 213.21 145.44 213.588V222H144.267ZM151.682 222.159C150.946 222.159 150.311 221.997 149.778 221.672C149.247 221.344 148.838 220.886 148.55 220.3C148.265 219.71 148.122 219.024 148.122 218.241C148.122 217.459 148.265 216.77 148.55 216.173C148.838 215.573 149.239 215.106 149.753 214.771C150.27 214.433 150.873 214.264 151.562 214.264C151.96 214.264 152.353 214.33 152.741 214.463C153.129 214.596 153.482 214.811 153.8 215.109C154.118 215.404 154.371 215.795 154.56 216.283C154.749 216.77 154.844 217.37 154.844 218.082V218.58H148.957V217.565H153.651C153.651 217.134 153.564 216.75 153.392 216.412C153.223 216.074 152.981 215.807 152.666 215.612C152.355 215.416 151.987 215.318 151.562 215.318C151.095 215.318 150.691 215.434 150.349 215.666C150.011 215.895 149.751 216.193 149.569 216.561C149.387 216.929 149.295 217.323 149.295 217.744V218.42C149.295 218.997 149.395 219.486 149.594 219.887C149.796 220.285 150.076 220.588 150.434 220.797C150.792 221.002 151.208 221.105 151.682 221.105C151.99 221.105 152.268 221.062 152.517 220.976C152.769 220.886 152.986 220.754 153.168 220.578C153.351 220.399 153.491 220.177 153.591 219.912L154.724 220.23C154.605 220.615 154.405 220.953 154.123 221.244C153.841 221.533 153.493 221.758 153.079 221.92C152.665 222.08 152.199 222.159 151.682 222.159ZM156.629 222V214.364H157.762V215.517H157.842C157.981 215.139 158.233 214.833 158.597 214.597C158.962 214.362 159.373 214.244 159.83 214.244C159.916 214.244 160.024 214.246 160.153 214.249C160.283 214.253 160.38 214.258 160.447 214.264V215.457C160.407 215.447 160.316 215.433 160.173 215.413C160.034 215.389 159.887 215.378 159.731 215.378C159.36 215.378 159.028 215.456 158.737 215.612C158.448 215.764 158.219 215.976 158.05 216.248C157.885 216.516 157.802 216.823 157.802 217.168V222H156.629ZM167.247 216.074L166.193 216.372C166.126 216.196 166.029 216.026 165.899 215.86C165.773 215.691 165.601 215.552 165.382 215.442C165.164 215.333 164.883 215.278 164.542 215.278C164.075 215.278 163.685 215.386 163.374 215.602C163.066 215.814 162.911 216.084 162.911 216.412C162.911 216.704 163.017 216.934 163.23 217.103C163.442 217.272 163.773 217.413 164.224 217.526L165.357 217.804C166.04 217.97 166.549 218.223 166.884 218.565C167.218 218.903 167.386 219.339 167.386 219.872C167.386 220.31 167.26 220.701 167.008 221.045C166.759 221.39 166.411 221.662 165.964 221.861C165.517 222.06 164.996 222.159 164.403 222.159C163.624 222.159 162.979 221.99 162.469 221.652C161.959 221.314 161.635 220.82 161.499 220.17L162.613 219.892C162.719 220.303 162.92 220.611 163.215 220.817C163.513 221.022 163.902 221.125 164.383 221.125C164.93 221.125 165.364 221.009 165.686 220.777C166.01 220.542 166.173 220.26 166.173 219.932C166.173 219.667 166.08 219.445 165.894 219.266C165.709 219.083 165.424 218.947 165.039 218.858L163.767 218.56C163.067 218.394 162.553 218.137 162.225 217.789C161.901 217.438 161.738 216.999 161.738 216.472C161.738 216.041 161.859 215.66 162.101 215.328C162.346 214.997 162.679 214.737 163.1 214.548C163.525 214.359 164.005 214.264 164.542 214.264C165.298 214.264 165.891 214.43 166.322 214.761C166.756 215.093 167.064 215.53 167.247 216.074ZM170.007 222.08C169.762 222.08 169.551 221.992 169.376 221.816C169.2 221.64 169.112 221.43 169.112 221.185C169.112 220.939 169.2 220.729 169.376 220.553C169.551 220.378 169.762 220.29 170.007 220.29C170.252 220.29 170.463 220.378 170.638 220.553C170.814 220.729 170.902 220.939 170.902 221.185C170.902 221.347 170.861 221.496 170.778 221.632C170.698 221.768 170.59 221.877 170.455 221.96C170.322 222.04 170.173 222.08 170.007 222.08ZM170.007 216.412C169.762 216.412 169.551 216.324 169.376 216.148C169.2 215.973 169.112 215.762 169.112 215.517C169.112 215.272 169.2 215.061 169.376 214.886C169.551 214.71 169.762 214.622 170.007 214.622C170.252 214.622 170.463 214.71 170.638 214.886C170.814 215.061 170.902 215.272 170.902 215.517C170.902 215.679 170.861 215.829 170.778 215.964C170.698 216.1 170.59 216.21 170.455 216.293C170.322 216.372 170.173 216.412 170.007 216.412ZM177.243 222L181.797 212.991V212.912H176.547V211.818H183.07V212.972L178.536 222H177.243ZM187.979 222.139C187.297 222.139 186.693 222.018 186.17 221.776C185.649 221.531 185.243 221.195 184.952 220.767C184.66 220.336 184.516 219.846 184.519 219.295C184.516 218.865 184.6 218.467 184.773 218.102C184.945 217.734 185.18 217.428 185.479 217.183C185.78 216.934 186.117 216.777 186.488 216.71V216.651C186.001 216.525 185.613 216.251 185.325 215.83C185.036 215.406 184.894 214.924 184.897 214.384C184.894 213.866 185.025 213.404 185.29 212.996C185.555 212.589 185.92 212.267 186.384 212.032C186.851 211.797 187.383 211.679 187.979 211.679C188.569 211.679 189.096 211.797 189.56 212.032C190.024 212.267 190.389 212.589 190.654 212.996C190.923 213.404 191.058 213.866 191.062 214.384C191.058 214.924 190.911 215.406 190.619 215.83C190.331 216.251 189.948 216.525 189.471 216.651V216.71C189.839 216.777 190.17 216.934 190.465 217.183C190.76 217.428 190.996 217.734 191.171 218.102C191.347 218.467 191.436 218.865 191.44 219.295C191.436 219.846 191.287 220.336 190.992 220.767C190.701 221.195 190.295 221.531 189.774 221.776C189.257 222.018 188.659 222.139 187.979 222.139ZM187.979 221.045C188.44 221.045 188.838 220.971 189.173 220.822C189.507 220.673 189.766 220.462 189.948 220.19C190.13 219.919 190.223 219.6 190.227 219.236C190.223 218.851 190.124 218.512 189.928 218.217C189.733 217.922 189.466 217.69 189.128 217.521C188.793 217.352 188.41 217.267 187.979 217.267C187.545 217.267 187.157 217.352 186.816 217.521C186.478 217.69 186.211 217.922 186.016 218.217C185.823 218.512 185.729 218.851 185.732 219.236C185.729 219.6 185.817 219.919 185.996 220.19C186.178 220.462 186.438 220.673 186.776 220.822C187.114 220.971 187.515 221.045 187.979 221.045ZM187.979 216.213C188.344 216.213 188.667 216.14 188.949 215.994C189.234 215.848 189.458 215.645 189.62 215.383C189.782 215.121 189.865 214.814 189.869 214.463C189.865 214.118 189.784 213.818 189.625 213.563C189.466 213.305 189.246 213.106 188.964 212.967C188.682 212.824 188.354 212.753 187.979 212.753C187.598 212.753 187.265 212.824 186.98 212.967C186.695 213.106 186.475 213.305 186.319 213.563C186.163 213.818 186.087 214.118 186.09 214.463C186.087 214.814 186.165 215.121 186.324 215.383C186.486 215.645 186.71 215.848 186.995 215.994C187.28 216.14 187.608 216.213 187.979 216.213Z" fill="black"/>
<path d="M42 225.625C36.6939 225.625 32.375 221.307 32.375 216C32.375 210.693 36.6939 206.375 42 206.375C47.3061 206.375 51.625 210.693 51.625 216C51.625 221.307 47.3061 225.625 42 225.625ZM42 207.75C37.4501 207.75 33.75 211.45 33.75 216C33.75 220.55 37.4501 224.25 42 224.25C46.5499 224.25 50.25 220.55 50.25 216C50.25 211.45 46.5499 207.75 42 207.75Z" fill="#1461FF"/>
<path d="M42 218.98C43.6456 218.98 44.9796 217.646 44.9796 216C44.9796 214.354 43.6456 213.02 42 213.02C40.3544 213.02 39.0204 214.354 39.0204 216C39.0204 217.646 40.3544 218.98 42 218.98Z" fill="#FC9D02"/>
<g filter="url(#filter0_d_1430_417)">
<circle cx="133" cy="115" r="44" fill="white"/>
</g>
<path fill-rule="evenodd" clip-rule="evenodd" d="M132.857 58C164.803 58 190.699 83.6974 190.699 115.397C190.699 147.096 164.803 172.793 132.857 172.793C126.068 172.793 119.331 171.608 112.957 169.289L117.932 155.816C140.428 163.996 165.347 152.53 173.59 130.208C181.833 107.884 170.279 83.1571 147.783 74.9773C143.002 73.2388 137.95 72.3492 132.857 72.3492V58Z" fill="#FC9D02"/>
<path fill-rule="evenodd" clip-rule="evenodd" d="M112.956 169.289C82.9622 158.383 67.5562 125.413 78.5468 95.649C86.1918 74.9474 105.11 60.4206 127.223 58.2729L128.632 72.5539C104.787 74.8698 87.3488 95.9286 89.6828 119.59C91.3057 136.047 102.285 150.127 117.932 155.816L112.956 169.289Z" fill="#0070C0"/>
<path fill-rule="evenodd" clip-rule="evenodd" d="M127.223 58.2729C129.096 58.091 130.976 57.9999 132.857 57.9999V72.3492C131.447 72.3492 130.036 72.4175 128.632 72.5539L127.223 58.2729Z" fill="#00B0F0"/>
<path d="M121.276 103.615V120H118.042V107.343L114.156 108.579V106.029L120.928 103.615H121.276ZM138.975 113.891V116.429H127.194L127.037 114.463L133.854 103.648H136.425L133.64 108.309L130.249 113.891H138.975ZM137.122 103.648V120H133.887V103.648H137.122ZM152.832 117.473V120H141.647V117.844L146.936 112.172C147.468 111.581 147.887 111.06 148.194 110.611C148.501 110.155 148.722 109.747 148.857 109.387C148.999 109.02 149.07 108.672 149.07 108.343C149.07 107.849 148.988 107.426 148.823 107.074C148.658 106.714 148.415 106.437 148.093 106.243C147.778 106.048 147.389 105.951 146.925 105.951C146.431 105.951 146.004 106.07 145.645 106.31C145.293 106.55 145.023 106.883 144.836 107.31C144.656 107.736 144.566 108.219 144.566 108.758H141.321C141.321 107.785 141.553 106.894 142.017 106.085C142.481 105.269 143.136 104.622 143.982 104.143C144.829 103.656 145.832 103.413 146.992 103.413C148.138 103.413 149.104 103.6 149.89 103.974C150.683 104.341 151.282 104.872 151.687 105.569C152.098 106.258 152.304 107.081 152.304 108.039C152.304 108.579 152.218 109.106 152.046 109.623C151.874 110.132 151.627 110.641 151.305 111.15C150.99 111.652 150.608 112.161 150.159 112.678C149.71 113.194 149.212 113.73 148.666 114.284L145.824 117.473H152.832Z" fill="#1C1E2F"/>
<path d="M110.851 128.141V135.25H109.391V128.141H110.851ZM113.038 128.141V129.288H107.237V128.141H113.038ZM112.711 132.662V132.56C112.711 132.172 112.766 131.816 112.877 131.49C112.988 131.161 113.149 130.877 113.36 130.636C113.572 130.395 113.832 130.208 114.142 130.074C114.451 129.937 114.806 129.869 115.206 129.869C115.606 129.869 115.963 129.937 116.275 130.074C116.588 130.208 116.85 130.395 117.062 130.636C117.276 130.877 117.439 131.161 117.55 131.49C117.661 131.816 117.716 132.172 117.716 132.56V132.662C117.716 133.046 117.661 133.403 117.55 133.731C117.439 134.057 117.276 134.342 117.062 134.586C116.85 134.827 116.59 135.014 116.28 135.147C115.971 135.281 115.616 135.348 115.216 135.348C114.815 135.348 114.459 135.281 114.147 135.147C113.837 135.014 113.575 134.827 113.36 134.586C113.149 134.342 112.988 134.057 112.877 133.731C112.766 133.403 112.711 133.046 112.711 132.662ZM114.117 132.56V132.662C114.117 132.883 114.137 133.09 114.176 133.282C114.215 133.474 114.277 133.643 114.361 133.79C114.449 133.933 114.563 134.046 114.703 134.127C114.843 134.208 115.014 134.249 115.216 134.249C115.411 134.249 115.579 134.208 115.719 134.127C115.859 134.046 115.971 133.933 116.056 133.79C116.14 133.643 116.202 133.474 116.241 133.282C116.284 133.09 116.305 132.883 116.305 132.662V132.56C116.305 132.345 116.284 132.143 116.241 131.954C116.202 131.762 116.139 131.593 116.051 131.446C115.966 131.296 115.854 131.179 115.714 131.095C115.574 131.01 115.405 130.968 115.206 130.968C115.008 130.968 114.838 131.01 114.698 131.095C114.562 131.179 114.449 131.296 114.361 131.446C114.277 131.593 114.215 131.762 114.176 131.954C114.137 132.143 114.117 132.345 114.117 132.56ZM121.168 129.967V130.963H118.092V129.967H121.168ZM118.854 128.663H120.26V133.658C120.26 133.811 120.279 133.928 120.318 134.01C120.361 134.091 120.423 134.148 120.504 134.181C120.585 134.21 120.688 134.225 120.812 134.225C120.899 134.225 120.978 134.221 121.046 134.215C121.118 134.205 121.178 134.195 121.227 134.185L121.231 135.221C121.111 135.26 120.981 135.291 120.841 135.313C120.701 135.336 120.546 135.348 120.377 135.348C120.068 135.348 119.798 135.297 119.566 135.196C119.339 135.092 119.163 134.926 119.039 134.698C118.915 134.47 118.854 134.171 118.854 133.8V128.663ZM124.82 134.059V131.705C124.82 131.536 124.793 131.391 124.737 131.27C124.682 131.147 124.596 131.051 124.479 130.982C124.365 130.914 124.217 130.88 124.034 130.88C123.878 130.88 123.743 130.907 123.629 130.963C123.515 131.015 123.427 131.091 123.365 131.192C123.303 131.29 123.273 131.406 123.273 131.539H121.866C121.866 131.314 121.918 131.101 122.023 130.899C122.127 130.698 122.278 130.52 122.477 130.367C122.675 130.211 122.911 130.089 123.185 130.001C123.461 129.913 123.771 129.869 124.112 129.869C124.523 129.869 124.887 129.937 125.206 130.074C125.525 130.211 125.776 130.416 125.958 130.689C126.144 130.963 126.236 131.305 126.236 131.715V133.976C126.236 134.265 126.254 134.503 126.29 134.688C126.326 134.871 126.378 135.03 126.446 135.167V135.25H125.025C124.957 135.107 124.905 134.928 124.869 134.713C124.837 134.495 124.82 134.277 124.82 134.059ZM125.006 132.032L125.016 132.828H124.23C124.044 132.828 123.883 132.849 123.746 132.892C123.609 132.934 123.497 132.994 123.409 133.072C123.321 133.147 123.256 133.235 123.214 133.336C123.175 133.437 123.155 133.547 123.155 133.668C123.155 133.788 123.183 133.897 123.238 133.995C123.294 134.089 123.373 134.164 123.478 134.22C123.582 134.272 123.704 134.298 123.844 134.298C124.055 134.298 124.239 134.255 124.396 134.171C124.552 134.086 124.672 133.982 124.757 133.858C124.845 133.735 124.89 133.617 124.894 133.507L125.265 134.102C125.213 134.236 125.141 134.374 125.05 134.518C124.962 134.661 124.85 134.796 124.713 134.923C124.576 135.046 124.412 135.149 124.22 135.23C124.028 135.309 123.8 135.348 123.536 135.348C123.201 135.348 122.897 135.281 122.623 135.147C122.353 135.011 122.138 134.824 121.979 134.586C121.822 134.345 121.744 134.072 121.744 133.766C121.744 133.489 121.796 133.243 121.9 133.028C122.005 132.813 122.158 132.633 122.359 132.486C122.565 132.337 122.82 132.224 123.126 132.149C123.432 132.071 123.787 132.032 124.19 132.032H125.006ZM128.805 127.75V135.25H127.394V127.75H128.805ZM138.385 131.529V131.866C138.385 132.407 138.312 132.892 138.165 133.321C138.019 133.751 137.812 134.117 137.545 134.42C137.278 134.719 136.959 134.949 136.588 135.108C136.22 135.268 135.812 135.348 135.362 135.348C134.916 135.348 134.508 135.268 134.137 135.108C133.769 134.949 133.45 134.719 133.18 134.42C132.91 134.117 132.7 133.751 132.55 133.321C132.403 132.892 132.33 132.407 132.33 131.866V131.529C132.33 130.986 132.403 130.501 132.55 130.074C132.696 129.644 132.903 129.278 133.17 128.976C133.44 128.673 133.759 128.442 134.127 128.282C134.498 128.123 134.907 128.043 135.353 128.043C135.802 128.043 136.21 128.123 136.578 128.282C136.949 128.442 137.268 128.673 137.535 128.976C137.805 129.278 138.014 129.644 138.16 130.074C138.31 130.501 138.385 130.986 138.385 131.529ZM136.905 131.866V131.519C136.905 131.142 136.871 130.81 136.803 130.523C136.734 130.237 136.634 129.996 136.5 129.801C136.367 129.605 136.204 129.459 136.012 129.361C135.82 129.26 135.6 129.21 135.353 129.21C135.105 129.21 134.885 129.26 134.693 129.361C134.505 129.459 134.343 129.605 134.21 129.801C134.08 129.996 133.981 130.237 133.912 130.523C133.844 130.81 133.81 131.142 133.81 131.519V131.866C133.81 132.24 133.844 132.573 133.912 132.862C133.981 133.149 134.081 133.391 134.215 133.59C134.348 133.785 134.511 133.933 134.703 134.034C134.895 134.135 135.115 134.185 135.362 134.185C135.61 134.185 135.829 134.135 136.022 134.034C136.214 133.933 136.375 133.785 136.505 133.59C136.635 133.391 136.734 133.149 136.803 132.862C136.871 132.573 136.905 132.24 136.905 131.866ZM141.144 135.25H139.728V129.498C139.728 129.098 139.806 128.761 139.962 128.487C140.121 128.211 140.344 128.002 140.631 127.862C140.921 127.719 141.264 127.647 141.661 127.647C141.791 127.647 141.917 127.657 142.037 127.677C142.158 127.693 142.275 127.714 142.389 127.74L142.374 128.8C142.312 128.783 142.247 128.772 142.179 128.766C142.11 128.759 142.031 128.756 141.94 128.756C141.77 128.756 141.625 128.785 141.505 128.844C141.388 128.899 141.298 128.982 141.236 129.093C141.175 129.203 141.144 129.338 141.144 129.498V135.25ZM142.198 129.967V130.963H138.941V129.967H142.198ZM144.728 135.25H143.312V129.498C143.312 129.098 143.39 128.761 143.546 128.487C143.705 128.211 143.928 128.002 144.215 127.862C144.505 127.719 144.848 127.647 145.245 127.647C145.375 127.647 145.501 127.657 145.621 127.677C145.742 127.693 145.859 127.714 145.973 127.74L145.958 128.8C145.896 128.783 145.831 128.772 145.763 128.766C145.694 128.759 145.615 128.756 145.523 128.756C145.354 128.756 145.209 128.785 145.089 128.844C144.972 128.899 144.882 128.982 144.82 129.093C144.759 129.203 144.728 129.338 144.728 129.498V135.25ZM145.782 129.967V130.963H142.525V129.967H145.782ZM148.834 135.348C148.424 135.348 148.056 135.282 147.731 135.152C147.405 135.019 147.128 134.835 146.9 134.601C146.676 134.366 146.503 134.094 146.383 133.785C146.262 133.473 146.202 133.141 146.202 132.789V132.594C146.202 132.193 146.259 131.827 146.373 131.495C146.487 131.163 146.65 130.875 146.861 130.631C147.076 130.387 147.337 130.199 147.643 130.069C147.949 129.936 148.294 129.869 148.678 129.869C149.052 129.869 149.384 129.931 149.674 130.055C149.964 130.178 150.206 130.354 150.401 130.582C150.6 130.81 150.75 131.083 150.851 131.402C150.952 131.718 151.002 132.07 151.002 132.457V133.043H146.803V132.105H149.62V131.998C149.62 131.803 149.584 131.629 149.513 131.476C149.444 131.319 149.34 131.196 149.2 131.104C149.06 131.013 148.881 130.968 148.663 130.968C148.478 130.968 148.318 131.008 148.185 131.09C148.051 131.171 147.942 131.285 147.857 131.432C147.776 131.578 147.714 131.751 147.672 131.949C147.633 132.144 147.613 132.359 147.613 132.594V132.789C147.613 133.001 147.643 133.196 147.701 133.375C147.763 133.554 147.849 133.709 147.96 133.839C148.074 133.969 148.211 134.07 148.37 134.142C148.533 134.213 148.717 134.249 148.922 134.249C149.176 134.249 149.412 134.2 149.63 134.102C149.851 134.002 150.042 133.85 150.201 133.648L150.885 134.391C150.774 134.55 150.623 134.703 150.431 134.85C150.242 134.996 150.014 135.116 149.747 135.211C149.48 135.302 149.176 135.348 148.834 135.348ZM153.209 131.119V135.25H151.803V129.967H153.126L153.209 131.119ZM154.801 129.933L154.776 131.236C154.708 131.227 154.625 131.218 154.527 131.212C154.433 131.202 154.347 131.197 154.269 131.197C154.07 131.197 153.898 131.223 153.751 131.275C153.608 131.324 153.487 131.397 153.39 131.495C153.295 131.593 153.224 131.712 153.175 131.852C153.129 131.991 153.103 132.151 153.097 132.33L152.814 132.242C152.814 131.9 152.848 131.586 152.916 131.3C152.984 131.01 153.084 130.758 153.214 130.543C153.347 130.328 153.51 130.162 153.702 130.045C153.894 129.928 154.114 129.869 154.361 129.869C154.44 129.869 154.519 129.876 154.601 129.889C154.682 129.898 154.749 129.913 154.801 129.933ZM158.321 133.79C158.321 133.689 158.292 133.598 158.233 133.517C158.175 133.435 158.066 133.36 157.906 133.292C157.75 133.22 157.524 133.155 157.228 133.097C156.961 133.038 156.712 132.965 156.481 132.877C156.253 132.786 156.054 132.677 155.885 132.55C155.719 132.423 155.589 132.273 155.494 132.101C155.4 131.925 155.353 131.725 155.353 131.5C155.353 131.279 155.4 131.07 155.494 130.875C155.592 130.68 155.73 130.507 155.909 130.357C156.092 130.204 156.313 130.086 156.573 130.001C156.837 129.913 157.133 129.869 157.462 129.869C157.921 129.869 158.315 129.942 158.644 130.089C158.976 130.235 159.23 130.437 159.405 130.694C159.584 130.948 159.674 131.238 159.674 131.563H158.268C158.268 131.427 158.238 131.305 158.18 131.197C158.124 131.087 158.037 131 157.916 130.938C157.799 130.873 157.646 130.841 157.457 130.841C157.301 130.841 157.166 130.868 157.052 130.924C156.938 130.976 156.85 131.047 156.788 131.139C156.73 131.227 156.7 131.324 156.7 131.432C156.7 131.513 156.717 131.586 156.749 131.651C156.785 131.713 156.842 131.77 156.92 131.822C156.998 131.874 157.099 131.923 157.223 131.969C157.35 132.011 157.506 132.05 157.691 132.086C158.072 132.164 158.412 132.267 158.712 132.393C159.011 132.517 159.249 132.686 159.425 132.901C159.601 133.113 159.689 133.391 159.689 133.736C159.689 133.971 159.636 134.185 159.532 134.381C159.428 134.576 159.278 134.747 159.083 134.893C158.888 135.037 158.653 135.149 158.38 135.23C158.11 135.309 157.805 135.348 157.467 135.348C156.975 135.348 156.559 135.26 156.217 135.084C155.878 134.908 155.621 134.685 155.445 134.415C155.273 134.142 155.187 133.862 155.187 133.575H156.52C156.526 133.767 156.575 133.922 156.666 134.039C156.76 134.156 156.879 134.241 157.023 134.293C157.169 134.345 157.327 134.371 157.496 134.371C157.678 134.371 157.83 134.347 157.95 134.298C158.071 134.246 158.162 134.177 158.224 134.093C158.289 134.005 158.321 133.904 158.321 133.79Z" fill="#475799"/>
<path d="M65.4718 166.456C65.7297 166.199 67.2984 164.845 68.0505 164.2M58.3806 155.175L61.6039 153.563M53.5456 142.926C53.8035 142.926 56.0168 142.282 57.0913 141.959M50.967 130.355L54.5126 129.711M50 117.462C50.2579 117.204 52.4712 117.355 53.5456 117.462M51.2893 104.247L54.5126 104.891M54.1903 91.6758L57.4136 92.6428M59.3476 79.4273L62.2485 81.0389M66.1165 68.1457L69.0175 70.402M75.1417 58.7982L77.3981 61.0545M85.134 50.4176L87.068 52.9962M96.4155 43.6487L98.0272 46.5496M108.342 38.8137L109.309 42.037M120.913 35.9127L121.557 39.136M133.161 34.9457C133.161 35.4615 133.161 37.5244 133.161 38.4914M146.054 35.9127L145.41 39.136M158.948 38.8137C158.948 39.3294 158.088 41.3923 157.658 42.3593M170.874 43.971L169.262 47.1943M182.155 51.0622L179.899 53.9632M191.825 59.4428C191.825 59.7007 190.106 61.2694 189.247 62.0215M200.528 69.4351L197.627 71.6914M207.297 80.7166L204.074 82.3283M212.132 92.9652L208.586 93.9321M215.033 105.536L211.487 106.181M216 118.429H212.454M214.711 131.645L211.165 131M212.132 144.538L208.264 142.926M206.652 156.464L203.429 154.853M199.883 167.423L196.983 165.489" stroke="#130F26" stroke-opacity="0.5" stroke-width="0.518637"/>
<path d="M1.82644 18V4.90909H6.24973C7.27672 4.90909 8.11621 5.09446 8.7682 5.4652C9.42445 5.83168 9.91025 6.32812 10.2256 6.95455C10.5409 7.58097 10.6986 8.27983 10.6986 9.05114C10.6986 9.82244 10.5409 10.5234 10.2256 11.1541C9.91451 11.7848 9.43297 12.2876 8.78098 12.6626C8.129 13.0334 7.29377 13.2188 6.2753 13.2188H3.10485V11.8125H6.22417C6.92729 11.8125 7.49192 11.6911 7.91806 11.4482C8.34419 11.2053 8.65314 10.8771 8.8449 10.4638C9.04093 10.0462 9.13894 9.57528 9.13894 9.05114C9.13894 8.52699 9.04093 8.05824 8.8449 7.64489C8.65314 7.23153 8.34206 6.90767 7.91167 6.6733C7.48127 6.43466 6.91025 6.31534 6.1986 6.31534H3.41167V18H1.82644ZM14.5562 4.90909V18H13.0477V4.90909H14.5562ZM20.2084 18.2301C19.5862 18.2301 19.0216 18.1129 18.5145 17.8786C18.0074 17.6399 17.6047 17.2969 17.3064 16.8494C17.0081 16.3977 16.8589 15.8523 16.8589 15.2131C16.8589 14.6506 16.9697 14.1946 17.1913 13.8452C17.4129 13.4915 17.7091 13.2145 18.0798 13.0142C18.4506 12.8139 18.8596 12.6648 19.3071 12.5668C19.7588 12.4645 20.2126 12.3835 20.6686 12.3239C21.2652 12.2472 21.7488 12.1896 22.1196 12.1513C22.4946 12.1087 22.7673 12.0384 22.9378 11.9403C23.1125 11.8423 23.1998 11.6719 23.1998 11.429V11.3778C23.1998 10.7472 23.0273 10.2571 22.6821 9.90767C22.3412 9.55824 21.8234 9.38352 21.1288 9.38352C20.4086 9.38352 19.844 9.54119 19.4349 9.85653C19.0258 10.1719 18.7382 10.5085 18.572 10.8665L17.1402 10.3551C17.3959 9.75852 17.7368 9.29403 18.1629 8.96165C18.5933 8.625 19.0621 8.39062 19.5692 8.25852C20.0805 8.12216 20.5834 8.05398 21.0777 8.05398C21.393 8.05398 21.7552 8.09233 22.1643 8.16903C22.5777 8.24148 22.9761 8.39276 23.3596 8.62287C23.7474 8.85298 24.0692 9.20028 24.3248 9.66477C24.5805 10.1293 24.7084 10.7514 24.7084 11.5312V18H23.1998V16.6705H23.1231C23.0209 16.8835 22.8504 17.1115 22.6118 17.3544C22.3731 17.5973 22.0557 17.804 21.6594 17.9744C21.2631 18.1449 20.7794 18.2301 20.2084 18.2301ZM20.4385 16.875C21.0351 16.875 21.5379 16.7578 21.947 16.5234C22.3604 16.2891 22.6714 15.9865 22.8802 15.6158C23.0933 15.245 23.1998 14.8551 23.1998 14.446V13.0653C23.1359 13.142 22.9953 13.2124 22.778 13.2763C22.5649 13.3359 22.3177 13.3892 22.0365 13.4361C21.7595 13.4787 21.4889 13.517 21.2247 13.5511C20.9648 13.581 20.7538 13.6065 20.5919 13.6278C20.1998 13.679 19.8334 13.7621 19.4925 13.8771C19.1558 13.9879 18.8831 14.1562 18.6743 14.3821C18.4697 14.6037 18.3675 14.9062 18.3675 15.2898C18.3675 15.8139 18.5613 16.2102 18.9491 16.4787C19.3412 16.7429 19.8376 16.875 20.4385 16.875ZM31.4504 18.2045C30.5299 18.2045 29.7373 17.9872 29.0725 17.5526C28.4078 17.1179 27.8964 16.5192 27.5384 15.7564C27.1805 14.9936 27.0015 14.1222 27.0015 13.142C27.0015 12.1449 27.1847 11.2649 27.5512 10.5021C27.922 9.73509 28.4376 9.13636 29.0981 8.70597C29.7629 8.27131 30.5384 8.05398 31.4248 8.05398C32.1151 8.05398 32.7373 8.18182 33.2913 8.4375C33.8453 8.69318 34.2991 9.05114 34.6528 9.51136C35.0065 9.97159 35.2259 10.5085 35.3112 11.1222H33.8026C33.6876 10.6747 33.4319 10.2784 33.0356 9.93324C32.6436 9.58381 32.1151 9.40909 31.4504 9.40909C30.8623 9.40909 30.3467 9.5625 29.9035 9.86932C29.4646 10.1719 29.1215 10.6001 28.8744 11.1541C28.6315 11.7038 28.51 12.3494 28.51 13.0909C28.51 13.8494 28.6294 14.5099 28.868 15.0724C29.1109 15.6349 29.4518 16.0717 29.8907 16.3828C30.3339 16.6939 30.8538 16.8494 31.4504 16.8494C31.8424 16.8494 32.1982 16.7812 32.5178 16.6449C32.8374 16.5085 33.108 16.3125 33.3296 16.0568C33.5512 15.8011 33.7089 15.4943 33.8026 15.1364H35.3112C35.2259 15.7159 35.015 16.2379 34.6784 16.7024C34.346 17.1626 33.9049 17.5291 33.3552 17.8018C32.8097 18.0703 32.1748 18.2045 31.4504 18.2045ZM41.6329 18.2045C40.6869 18.2045 39.8708 17.9957 39.1847 17.5781C38.5029 17.1562 37.9767 16.5682 37.6059 15.8139C37.2394 15.0554 37.0562 14.1733 37.0562 13.1676C37.0562 12.1619 37.2394 11.2756 37.6059 10.5085C37.9767 9.73722 38.4923 9.13636 39.1528 8.70597C39.8176 8.27131 40.5931 8.05398 41.4795 8.05398C41.9909 8.05398 42.4958 8.1392 42.9944 8.30966C43.493 8.48011 43.9468 8.7571 44.3559 9.14062C44.765 9.51989 45.091 10.0227 45.3339 10.6491C45.5768 11.2756 45.6982 12.0469 45.6982 12.9631V13.6023H38.1301V12.2983H44.1642C44.1642 11.7443 44.0534 11.25 43.8318 10.8153C43.6144 10.3807 43.3034 10.0376 42.8985 9.78622C42.498 9.5348 42.0249 9.40909 41.4795 9.40909C40.8786 9.40909 40.3588 9.55824 39.9198 9.85653C39.4852 10.1506 39.1507 10.5341 38.9163 11.0071C38.6819 11.4801 38.5647 11.9872 38.5647 12.5284V13.3977C38.5647 14.1392 38.6926 14.7678 38.9482 15.2834C39.2082 15.7947 39.5683 16.1847 40.0285 16.4531C40.4887 16.7173 41.0235 16.8494 41.6329 16.8494C42.0292 16.8494 42.3872 16.794 42.7068 16.6832C43.0306 16.5682 43.3097 16.3977 43.5441 16.1719C43.7785 15.9418 43.9596 15.6562 44.0874 15.3153L45.5448 15.7244C45.3914 16.2188 45.1336 16.6534 44.7714 17.0284C44.4092 17.3991 43.9617 17.6889 43.4291 17.8977C42.8964 18.1023 42.2977 18.2045 41.6329 18.2045ZM47.993 18V8.18182H49.4504V9.71591H49.5782C49.7828 9.19176 50.113 8.7848 50.569 8.49503C51.0249 8.20099 51.5725 8.05398 52.2117 8.05398C52.8595 8.05398 53.3985 8.20099 53.8289 8.49503C54.2636 8.7848 54.6024 9.19176 54.8453 9.71591H54.9475C55.199 9.20881 55.5761 8.80611 56.0789 8.50781C56.5818 8.20526 57.1847 8.05398 57.8879 8.05398C58.7657 8.05398 59.4838 8.32884 60.042 8.87855C60.6002 9.42401 60.8794 10.2741 60.8794 11.429V18H59.3708V11.429C59.3708 10.7045 59.1727 10.1868 58.7764 9.87571C58.3801 9.56463 57.9134 9.40909 57.3765 9.40909C56.6862 9.40909 56.1514 9.6179 55.7721 10.0355C55.3928 10.4489 55.2032 10.973 55.2032 11.608V18H53.6691V11.2756C53.6691 10.7173 53.488 10.2678 53.1258 9.92685C52.7636 9.58168 52.297 9.40909 51.7259 9.40909C51.3339 9.40909 50.9674 9.51349 50.6265 9.7223C50.2899 9.93111 50.0171 10.2209 49.8083 10.5916C49.6038 10.9581 49.5015 11.3821 49.5015 11.8636V18H47.993ZM67.754 18.2045C66.808 18.2045 65.9919 17.9957 65.3058 17.5781C64.624 17.1562 64.0977 16.5682 63.727 15.8139C63.3605 15.0554 63.1773 14.1733 63.1773 13.1676C63.1773 12.1619 63.3605 11.2756 63.727 10.5085C64.0977 9.73722 64.6134 9.13636 65.2739 8.70597C65.9387 8.27131 66.7142 8.05398 67.6006 8.05398C68.1119 8.05398 68.6169 8.1392 69.1155 8.30966C69.6141 8.48011 70.0679 8.7571 70.477 9.14062C70.8861 9.51989 71.2121 10.0227 71.455 10.6491C71.6979 11.2756 71.8193 12.0469 71.8193 12.9631V13.6023H64.2512V12.2983H70.2852C70.2852 11.7443 70.1744 11.25 69.9529 10.8153C69.7355 10.3807 69.4244 10.0376 69.0196 9.78622C68.6191 9.5348 68.146 9.40909 67.6006 9.40909C66.9997 9.40909 66.4798 9.55824 66.0409 9.85653C65.6063 10.1506 65.2718 10.5341 65.0374 11.0071C64.803 11.4801 64.6858 11.9872 64.6858 12.5284V13.3977C64.6858 14.1392 64.8137 14.7678 65.0693 15.2834C65.3293 15.7947 65.6894 16.1847 66.1496 16.4531C66.6098 16.7173 67.1446 16.8494 67.754 16.8494C68.1503 16.8494 68.5083 16.794 68.8279 16.6832C69.1517 16.5682 69.4308 16.3977 69.6652 16.1719C69.8996 15.9418 70.0807 15.6562 70.2085 15.3153L71.6659 15.7244C71.5125 16.2188 71.2547 16.6534 70.8925 17.0284C70.5303 17.3991 70.0828 17.6889 69.5502 17.8977C69.0175 18.1023 68.4188 18.2045 67.754 18.2045ZM75.6226 12.0938V18H74.1141V8.18182H75.5715V9.71591H75.6993C75.9294 9.21733 76.2789 8.81676 76.7476 8.5142C77.2164 8.20739 77.8215 8.05398 78.5629 8.05398C79.2277 8.05398 79.8094 8.19034 80.308 8.46307C80.8066 8.73153 81.1943 9.14062 81.4713 9.69034C81.7483 10.2358 81.8868 10.9261 81.8868 11.7614V18H80.3783V11.8636C80.3783 11.0923 80.178 10.4915 79.7774 10.0611C79.3769 9.62642 78.8271 9.40909 78.1283 9.40909C77.6468 9.40909 77.2164 9.51349 76.8371 9.7223C76.4621 9.93111 76.1659 10.2358 75.9486 10.6364C75.7313 11.0369 75.6226 11.5227 75.6226 12.0938ZM88.9133 8.18182V9.46023H83.8252V8.18182H88.9133ZM85.3081 5.82955H86.8167V15.1875C86.8167 15.6136 86.8785 15.9332 87.002 16.1463C87.1299 16.3551 87.2918 16.4957 87.4878 16.5682C87.6881 16.6364 87.8991 16.6705 88.1207 16.6705C88.2868 16.6705 88.4232 16.6619 88.5297 16.6449C88.6363 16.6236 88.7215 16.6065 88.7854 16.5938L89.0922 17.9489C88.99 17.9872 88.8472 18.0256 88.664 18.0639C88.4807 18.1065 88.2485 18.1278 87.9672 18.1278C87.5411 18.1278 87.1235 18.0362 86.7144 17.853C86.3096 17.6697 85.9729 17.3906 85.7045 17.0156C85.4403 16.6406 85.3081 16.1676 85.3081 15.5966V5.82955ZM103.609 8.18182C103.532 7.53409 103.221 7.03125 102.675 6.6733C102.13 6.31534 101.461 6.13636 100.668 6.13636C100.089 6.13636 99.5816 6.23011 99.1469 6.41761C98.7165 6.60511 98.3799 6.86293 98.137 7.19105C97.8983 7.51918 97.779 7.89204 97.779 8.30966C97.779 8.65909 97.8621 8.95952 98.0283 9.21094C98.1988 9.4581 98.4161 9.66477 98.6803 9.83097C98.9445 9.9929 99.2215 10.1271 99.5113 10.2337C99.801 10.3359 100.067 10.419 100.31 10.483L101.64 10.8409C101.981 10.9304 102.36 11.054 102.778 11.2116C103.199 11.3693 103.602 11.5845 103.986 11.8572C104.373 12.1257 104.693 12.4709 104.945 12.8928C105.196 13.3146 105.322 13.8324 105.322 14.446C105.322 15.1534 105.136 15.7926 104.766 16.3636C104.399 16.9347 103.862 17.3885 103.155 17.7251C102.452 18.0618 101.597 18.2301 100.592 18.2301C99.654 18.2301 98.8422 18.0788 98.1562 17.7763C97.4743 17.4737 96.9374 17.0518 96.5454 16.5107C96.1576 15.9695 95.9381 15.3409 95.887 14.625H97.5233C97.566 15.1193 97.7322 15.5284 98.0219 15.8523C98.316 16.1719 98.6867 16.4105 99.1341 16.5682C99.5858 16.7216 100.072 16.7983 100.592 16.7983C101.197 16.7983 101.74 16.7003 102.222 16.5043C102.703 16.304 103.084 16.027 103.366 15.6733C103.647 15.3153 103.788 14.8977 103.788 14.4205C103.788 13.9858 103.666 13.6321 103.423 13.3594C103.18 13.0866 102.861 12.8651 102.464 12.6946C102.068 12.5241 101.64 12.375 101.18 12.2472L99.5688 11.7869C98.5461 11.4929 97.7364 11.0732 97.1398 10.5277C96.5432 9.98224 96.2449 9.26847 96.2449 8.38636C96.2449 7.65341 96.4431 7.0142 96.8394 6.46875C97.24 5.91903 97.7769 5.4929 98.4502 5.19034C99.1278 4.88352 99.8841 4.73011 100.719 4.73011C101.563 4.73011 102.313 4.88139 102.969 5.18395C103.626 5.48224 104.146 5.89133 104.529 6.41122C104.917 6.93111 105.121 7.52131 105.143 8.18182H103.609ZM113.911 13.9858V8.18182H115.419V18H113.911V16.3381H113.809C113.579 16.8366 113.221 17.2607 112.735 17.6101C112.249 17.9553 111.635 18.1278 110.894 18.1278C110.28 18.1278 109.735 17.9936 109.258 17.7251C108.78 17.4524 108.405 17.0433 108.133 16.4979C107.86 15.9482 107.723 15.2557 107.723 14.4205V8.18182H109.232V14.3182C109.232 15.0341 109.432 15.6051 109.833 16.0312C110.238 16.4574 110.753 16.6705 111.38 16.6705C111.755 16.6705 112.136 16.5746 112.524 16.3828C112.916 16.1911 113.244 15.897 113.508 15.5007C113.777 15.1044 113.911 14.5994 113.911 13.9858ZM118.182 18V8.18182H119.64V9.71591H119.768C119.972 9.19176 120.302 8.7848 120.758 8.49503C121.214 8.20099 121.762 8.05398 122.401 8.05398C123.049 8.05398 123.588 8.20099 124.018 8.49503C124.453 8.7848 124.792 9.19176 125.035 9.71591H125.137C125.388 9.20881 125.766 8.80611 126.268 8.50781C126.771 8.20526 127.374 8.05398 128.077 8.05398C128.955 8.05398 129.673 8.32884 130.231 8.87855C130.79 9.42401 131.069 10.2741 131.069 11.429V18H129.56V11.429C129.56 10.7045 129.362 10.1868 128.966 9.87571C128.57 9.56463 128.103 9.40909 127.566 9.40909C126.876 9.40909 126.341 9.6179 125.962 10.0355C125.582 10.4489 125.393 10.973 125.393 11.608V18H123.859V11.2756C123.859 10.7173 123.677 10.2678 123.315 9.92685C122.953 9.58168 122.486 9.40909 121.915 9.40909C121.523 9.40909 121.157 9.51349 120.816 9.7223C120.479 9.93111 120.207 10.2209 119.998 10.5916C119.793 10.9581 119.691 11.3821 119.691 11.8636V18H118.182ZM133.827 18V8.18182H135.284V9.71591H135.412C135.617 9.19176 135.947 8.7848 136.403 8.49503C136.859 8.20099 137.407 8.05398 138.046 8.05398C138.693 8.05398 139.233 8.20099 139.663 8.49503C140.098 8.7848 140.436 9.19176 140.679 9.71591H140.782C141.033 9.20881 141.41 8.80611 141.913 8.50781C142.416 8.20526 143.019 8.05398 143.722 8.05398C144.6 8.05398 145.318 8.32884 145.876 8.87855C146.434 9.42401 146.713 10.2741 146.713 11.429V18H145.205V11.429C145.205 10.7045 145.007 10.1868 144.61 9.87571C144.214 9.56463 143.747 9.40909 143.21 9.40909C142.52 9.40909 141.985 9.6179 141.606 10.0355C141.227 10.4489 141.037 10.973 141.037 11.608V18H139.503V11.2756C139.503 10.7173 139.322 10.2678 138.96 9.92685C138.598 9.58168 138.131 9.40909 137.56 9.40909C137.168 9.40909 136.801 9.51349 136.46 9.7223C136.124 9.93111 135.851 10.2209 135.642 10.5916C135.438 10.9581 135.335 11.3821 135.335 11.8636V18H133.827ZM152.361 18.2301C151.739 18.2301 151.174 18.1129 150.667 17.8786C150.16 17.6399 149.757 17.2969 149.459 16.8494C149.16 16.3977 149.011 15.8523 149.011 15.2131C149.011 14.6506 149.122 14.1946 149.344 13.8452C149.565 13.4915 149.861 13.2145 150.232 13.0142C150.603 12.8139 151.012 12.6648 151.459 12.5668C151.911 12.4645 152.365 12.3835 152.821 12.3239C153.418 12.2472 153.901 12.1896 154.272 12.1513C154.647 12.1087 154.92 12.0384 155.09 11.9403C155.265 11.8423 155.352 11.6719 155.352 11.429V11.3778C155.352 10.7472 155.18 10.2571 154.834 9.90767C154.494 9.55824 153.976 9.38352 153.281 9.38352C152.561 9.38352 151.996 9.54119 151.587 9.85653C151.178 10.1719 150.891 10.5085 150.724 10.8665L149.293 10.3551C149.548 9.75852 149.889 9.29403 150.315 8.96165C150.746 8.625 151.214 8.39062 151.722 8.25852C152.233 8.12216 152.736 8.05398 153.23 8.05398C153.545 8.05398 153.908 8.09233 154.317 8.16903C154.73 8.24148 155.128 8.39276 155.512 8.62287C155.9 8.85298 156.222 9.20028 156.477 9.66477C156.733 10.1293 156.861 10.7514 156.861 11.5312V18H155.352V16.6705H155.275C155.173 16.8835 155.003 17.1115 154.764 17.3544C154.525 17.5973 154.208 17.804 153.812 17.9744C153.415 18.1449 152.932 18.2301 152.361 18.2301ZM152.591 16.875C153.187 16.875 153.69 16.7578 154.099 16.5234C154.513 16.2891 154.824 15.9865 155.033 15.6158C155.246 15.245 155.352 14.8551 155.352 14.446V13.0653C155.288 13.142 155.148 13.2124 154.93 13.2763C154.717 13.3359 154.47 13.3892 154.189 13.4361C153.912 13.4787 153.641 13.517 153.377 13.5511C153.117 13.581 152.906 13.6065 152.744 13.6278C152.352 13.679 151.986 13.7621 151.645 13.8771C151.308 13.9879 151.035 14.1562 150.827 14.3821C150.622 14.6037 150.52 14.9062 150.52 15.2898C150.52 15.8139 150.714 16.2102 151.101 16.4787C151.494 16.7429 151.99 16.875 152.591 16.875ZM159.614 18V8.18182H161.071V9.66477H161.174C161.353 9.17898 161.677 8.7848 162.145 8.48224C162.614 8.17969 163.142 8.02841 163.731 8.02841C163.841 8.02841 163.98 8.03054 164.146 8.0348C164.312 8.03906 164.438 8.04545 164.523 8.05398V9.58807C164.472 9.57528 164.355 9.55611 164.172 9.53054C163.993 9.50071 163.803 9.4858 163.603 9.4858C163.125 9.4858 162.699 9.58594 162.324 9.78622C161.954 9.98224 161.66 10.255 161.442 10.6044C161.229 10.9496 161.123 11.3437 161.123 11.7869V18H159.614ZM167.582 21.6818C167.326 21.6818 167.098 21.6605 166.898 21.6179C166.698 21.5795 166.559 21.5412 166.482 21.5028L166.866 20.1733C167.232 20.267 167.556 20.3011 167.837 20.2756C168.119 20.25 168.368 20.1243 168.585 19.8984C168.807 19.6768 169.009 19.3168 169.193 18.8182L169.474 18.0511L165.843 8.18182H167.479L170.19 16.0057H170.292L173.002 8.18182H174.639L170.471 19.4318C170.283 19.9389 170.051 20.3587 169.774 20.6911C169.497 21.0277 169.176 21.277 168.809 21.4389C168.447 21.6009 168.038 21.6818 167.582 21.6818ZM182.229 12.4773C182.229 10.8665 182.438 9.38565 182.856 8.0348C183.277 6.67969 183.878 5.43324 184.658 4.29545H185.988C185.681 4.71733 185.393 5.23722 185.125 5.85511C184.861 6.46875 184.628 7.14418 184.428 7.88139C184.228 8.61435 184.07 9.37287 183.955 10.157C183.844 10.9411 183.789 11.7145 183.789 12.4773C183.789 13.4915 183.887 14.5206 184.083 15.5646C184.279 16.6087 184.543 17.5781 184.875 18.473C185.208 19.3679 185.579 20.0966 185.988 20.6591H184.658C183.878 19.5213 183.277 18.277 182.856 16.9261C182.438 15.571 182.229 14.0881 182.229 12.4773ZM189.722 4.90909V18H188.214V4.90909H189.722ZM195.374 18.2301C194.752 18.2301 194.188 18.1129 193.68 17.8786C193.173 17.6399 192.771 17.2969 192.472 16.8494C192.174 16.3977 192.025 15.8523 192.025 15.2131C192.025 14.6506 192.136 14.1946 192.357 13.8452C192.579 13.4915 192.875 13.2145 193.246 13.0142C193.617 12.8139 194.026 12.6648 194.473 12.5668C194.925 12.4645 195.379 12.3835 195.835 12.3239C196.431 12.2472 196.915 12.1896 197.286 12.1513C197.661 12.1087 197.933 12.0384 198.104 11.9403C198.278 11.8423 198.366 11.6719 198.366 11.429V11.3778C198.366 10.7472 198.193 10.2571 197.848 9.90767C197.507 9.55824 196.989 9.38352 196.295 9.38352C195.575 9.38352 195.01 9.54119 194.601 9.85653C194.192 10.1719 193.904 10.5085 193.738 10.8665L192.306 10.3551C192.562 9.75852 192.903 9.29403 193.329 8.96165C193.759 8.625 194.228 8.39062 194.735 8.25852C195.247 8.12216 195.749 8.05398 196.244 8.05398C196.559 8.05398 196.921 8.09233 197.33 8.16903C197.744 8.24148 198.142 8.39276 198.526 8.62287C198.913 8.85298 199.235 9.20028 199.491 9.66477C199.747 10.1293 199.874 10.7514 199.874 11.5312V18H198.366V16.6705H198.289C198.187 16.8835 198.016 17.1115 197.778 17.3544C197.539 17.5973 197.222 17.804 196.825 17.9744C196.429 18.1449 195.945 18.2301 195.374 18.2301ZM195.604 16.875C196.201 16.875 196.704 16.7578 197.113 16.5234C197.526 16.2891 197.837 15.9865 198.046 15.6158C198.259 15.245 198.366 14.8551 198.366 14.446V13.0653C198.302 13.142 198.161 13.2124 197.944 13.2763C197.731 13.3359 197.484 13.3892 197.203 13.4361C196.926 13.4787 196.655 13.517 196.391 13.5511C196.131 13.581 195.92 13.6065 195.758 13.6278C195.366 13.679 194.999 13.7621 194.658 13.8771C194.322 13.9879 194.049 14.1562 193.84 14.3821C193.636 14.6037 193.533 14.9062 193.533 15.2898C193.533 15.8139 193.727 16.2102 194.115 16.4787C194.507 16.7429 195.004 16.875 195.604 16.875ZM209.582 10.3807L208.227 10.7642C208.142 10.5384 208.016 10.3189 207.85 10.1058C207.688 9.88849 207.467 9.70952 207.185 9.56889C206.904 9.42827 206.544 9.35795 206.105 9.35795C205.504 9.35795 205.003 9.49645 204.603 9.77344C204.207 10.0462 204.008 10.3935 204.008 10.8153C204.008 11.1903 204.145 11.4865 204.418 11.7038C204.69 11.9212 205.116 12.1023 205.696 12.2472L207.153 12.6051C208.031 12.8182 208.685 13.1442 209.116 13.5831C209.546 14.0178 209.761 14.5781 209.761 15.2642C209.761 15.8267 209.599 16.3295 209.275 16.7727C208.956 17.2159 208.508 17.5653 207.933 17.821C207.358 18.0767 206.689 18.2045 205.926 18.2045C204.925 18.2045 204.096 17.9872 203.44 17.5526C202.783 17.1179 202.368 16.483 202.193 15.6477L203.625 15.2898C203.761 15.8182 204.019 16.2145 204.398 16.4787C204.782 16.7429 205.283 16.875 205.9 16.875C206.604 16.875 207.162 16.7259 207.575 16.4276C207.993 16.125 208.202 15.7628 208.202 15.3409C208.202 15 208.082 14.7145 207.844 14.4844C207.605 14.25 207.239 14.0753 206.744 13.9602L205.108 13.5767C204.209 13.3636 203.548 13.0334 203.126 12.5859C202.709 12.1342 202.5 11.5696 202.5 10.892C202.5 10.3381 202.655 9.84801 202.967 9.42188C203.282 8.99574 203.71 8.66122 204.251 8.41832C204.797 8.17543 205.415 8.05398 206.105 8.05398C207.077 8.05398 207.839 8.26705 208.393 8.69318C208.952 9.11932 209.348 9.68182 209.582 10.3807ZM216.302 8.18182V9.46023H211.214V8.18182H216.302ZM212.697 5.82955H214.205V15.1875C214.205 15.6136 214.267 15.9332 214.391 16.1463C214.519 16.3551 214.68 16.4957 214.877 16.5682C215.077 16.6364 215.288 16.6705 215.509 16.6705C215.676 16.6705 215.812 16.6619 215.918 16.6449C216.025 16.6236 216.11 16.6065 216.174 16.5938L216.481 17.9489C216.379 17.9872 216.236 18.0256 216.053 18.0639C215.869 18.1065 215.637 18.1278 215.356 18.1278C214.93 18.1278 214.512 18.0362 214.103 17.853C213.698 17.6697 213.362 17.3906 213.093 17.0156C212.829 16.6406 212.697 16.1676 212.697 15.5966V5.82955ZM224.605 21.6818C224.35 21.6818 224.122 21.6605 223.921 21.6179C223.721 21.5795 223.582 21.5412 223.506 21.5028L223.889 20.1733C224.256 20.267 224.58 20.3011 224.861 20.2756C225.142 20.25 225.391 20.1243 225.609 19.8984C225.83 19.6768 226.033 19.3168 226.216 18.8182L226.497 18.0511L222.867 8.18182H224.503L227.213 16.0057H227.315L230.026 8.18182H231.662L227.494 19.4318C227.307 19.9389 227.075 20.3587 226.798 20.6911C226.521 21.0277 226.199 21.277 225.832 21.4389C225.47 21.6009 225.061 21.6818 224.605 21.6818ZM237.418 18.2045C236.472 18.2045 235.656 17.9957 234.97 17.5781C234.288 17.1562 233.762 16.5682 233.391 15.8139C233.025 15.0554 232.841 14.1733 232.841 13.1676C232.841 12.1619 233.025 11.2756 233.391 10.5085C233.762 9.73722 234.277 9.13636 234.938 8.70597C235.603 8.27131 236.378 8.05398 237.265 8.05398C237.776 8.05398 238.281 8.1392 238.78 8.30966C239.278 8.48011 239.732 8.7571 240.141 9.14062C240.55 9.51989 240.876 10.0227 241.119 10.6491C241.362 11.2756 241.483 12.0469 241.483 12.9631V13.6023H233.915V12.2983H239.949C239.949 11.7443 239.839 11.25 239.617 10.8153C239.4 10.3807 239.089 10.0376 238.684 9.78622C238.283 9.5348 237.81 9.40909 237.265 9.40909C236.664 9.40909 236.144 9.55824 235.705 9.85653C235.27 10.1506 234.936 10.5341 234.701 11.0071C234.467 11.4801 234.35 11.9872 234.35 12.5284V13.3977C234.35 14.1392 234.478 14.7678 234.733 15.2834C234.993 15.7947 235.353 16.1847 235.814 16.4531C236.274 16.7173 236.809 16.8494 237.418 16.8494C237.814 16.8494 238.172 16.794 238.492 16.6832C238.816 16.5682 239.095 16.3977 239.329 16.1719C239.564 15.9418 239.745 15.6562 239.873 15.3153L241.33 15.7244C241.177 16.2188 240.919 16.6534 240.557 17.0284C240.194 17.3991 239.747 17.6889 239.214 17.8977C238.682 18.1023 238.083 18.2045 237.418 18.2045ZM246.667 18.2301C246.045 18.2301 245.481 18.1129 244.973 17.8786C244.466 17.6399 244.064 17.2969 243.765 16.8494C243.467 16.3977 243.318 15.8523 243.318 15.2131C243.318 14.6506 243.429 14.1946 243.65 13.8452C243.872 13.4915 244.168 13.2145 244.539 13.0142C244.91 12.8139 245.319 12.6648 245.766 12.5668C246.218 12.4645 246.672 12.3835 247.128 12.3239C247.724 12.2472 248.208 12.1896 248.579 12.1513C248.954 12.1087 249.226 12.0384 249.397 11.9403C249.571 11.8423 249.659 11.6719 249.659 11.429V11.3778C249.659 10.7472 249.486 10.2571 249.141 9.90767C248.8 9.55824 248.282 9.38352 247.588 9.38352C246.868 9.38352 246.303 9.54119 245.894 9.85653C245.485 10.1719 245.197 10.5085 245.031 10.8665L243.599 10.3551C243.855 9.75852 244.196 9.29403 244.622 8.96165C245.052 8.625 245.521 8.39062 246.028 8.25852C246.54 8.12216 247.042 8.05398 247.537 8.05398C247.852 8.05398 248.214 8.09233 248.623 8.16903C249.037 8.24148 249.435 8.39276 249.819 8.62287C250.206 8.85298 250.528 9.20028 250.784 9.66477C251.04 10.1293 251.167 10.7514 251.167 11.5312V18H249.659V16.6705H249.582C249.48 16.8835 249.309 17.1115 249.071 17.3544C248.832 17.5973 248.515 17.804 248.118 17.9744C247.722 18.1449 247.238 18.2301 246.667 18.2301ZM246.897 16.875C247.494 16.875 247.997 16.7578 248.406 16.5234C248.819 16.2891 249.13 15.9865 249.339 15.6158C249.552 15.245 249.659 14.8551 249.659 14.446V13.0653C249.595 13.142 249.454 13.2124 249.237 13.2763C249.024 13.3359 248.777 13.3892 248.495 13.4361C248.218 13.4787 247.948 13.517 247.684 13.5511C247.424 13.581 247.213 13.6065 247.051 13.6278C246.659 13.679 246.292 13.7621 245.951 13.8771C245.615 13.9879 245.342 14.1562 245.133 14.3821C244.929 14.6037 244.826 14.9062 244.826 15.2898C244.826 15.8139 245.02 16.2102 245.408 16.4787C245.8 16.7429 246.297 16.875 246.897 16.875ZM253.921 18V8.18182H255.378V9.66477H255.48C255.659 9.17898 255.983 8.7848 256.452 8.48224C256.921 8.17969 257.449 8.02841 258.037 8.02841C258.148 8.02841 258.286 8.03054 258.453 8.0348C258.619 8.03906 258.745 8.04545 258.83 8.05398V9.58807C258.779 9.57528 258.661 9.55611 258.478 9.53054C258.299 9.50071 258.11 9.4858 257.909 9.4858C257.432 9.4858 257.006 9.58594 256.631 9.78622C256.26 9.98224 255.966 10.255 255.749 10.6044C255.536 10.9496 255.429 11.3437 255.429 11.7869V18H253.921ZM263.84 12.4773C263.84 14.0881 263.629 15.571 263.207 16.9261C262.789 18.277 262.19 19.5213 261.411 20.6591H260.081C260.388 20.2372 260.673 19.7173 260.938 19.0994C261.206 18.4858 261.44 17.8125 261.641 17.0795C261.841 16.3423 261.997 15.5817 262.107 14.7976C262.222 14.0092 262.28 13.2358 262.28 12.4773C262.28 11.4631 262.182 10.4339 261.986 9.38991C261.79 8.34588 261.526 7.37642 261.193 6.48153C260.861 5.58665 260.49 4.85795 260.081 4.29545H261.411C262.19 5.43324 262.789 6.67969 263.207 8.0348C263.629 9.38565 263.84 10.8665 263.84 12.4773Z" fill="#1B2767"/>
<defs>
<filter id="filter0_d_1430_417" x="44" y="25.9999" width="188" height="188" filterUnits="userSpaceOnUse" color-interpolation-filters="sRGB">
<feFlood flood-opacity="0" result="BackgroundImageFix"/>
<feColorMatrix in="SourceAlpha" type="matrix" values="0 0 0 0 0 0 0 0 0 0 0 0 0 0 0 0 0 0 127 0" result="hardAlpha"/>
<feMorphology radius="10" operator="dilate" in="SourceAlpha" result="effect1_dropShadow_1430_417"/>
<feOffset dx="5" dy="5"/>
<feGaussianBlur stdDeviation="20"/>
<feColorMatrix type="matrix" values="0 0 0 0 0.38273 0 0 0 0 0.75538 0 0 0 0 0.779167 0 0 0 1 0"/>
<feBlend mode="normal" in2="BackgroundImageFix" result="effect1_dropShadow_1430_417"/>
<feBlend mode="normal" in="SourceGraphic" in2="effect1_dropShadow_1430_417" result="shape"/>
</filter>
</defs>
</svg>
